<svg xmlns="http://www.w3.org/2000/svg" version="1.1" xmlns:xlink="http://www.w3.org/1999/xlink" xmlns:svgjs="http://svgjs.dev/svgjs" width="2000" height="1500" viewBox="0 0 2000 1500"><rect width="2000" height="1500" fill="#111111"></rect><g transform="matrix(0.75,0,0,0.75,249.090909090909,595.8072979192755)"><svg viewBox="0 0 396 81" data-background-color="#111111" preserveAspectRatio="xMidYMid meet" height="409" width="2000" xmlns="http://www.w3.org/2000/svg" xmlns:xlink="http://www.w3.org/1999/xlink"><g id="tight-bounds" transform="matrix(1,0,0,1,0.2400000000000091,0.21592138250622384)"><svg viewBox="0 0 395.52 80.56815723498755" height="80.56815723498755" width="395.52"><g><svg viewBox="0 0 395.52 80.56815723498755" height="80.56815723498755" width="395.52"><g><svg viewBox="0 0 395.52 80.56815723498755" height="80.56815723498755" width="395.52"><g id="textblocktransform"><svg viewBox="0 0 395.52 80.56815723498755" height="80.56815723498755" width="395.52" id="textblock"><g><svg viewBox="0 0 395.52 80.56815723498755" height="80.56815723498755" width="395.52"><g transform="matrix(1,0,0,1,0,0)"><svg width="395.52" viewBox="0.34375 -40.504545422625 233.18625 47.504545422625" height="80.56815723498755" data-palette-color="#ffffff"><path d="M28.15-1.2L17.15-34.8 6.2-1.2 6.2-1.25Q5.9-0.5 5.38-0.03 4.85 0.45 4.1 0.45L4.1 0.45Q3.7 0.45 3.33 0.38 2.95 0.3 2.55 0.2L2.55 0.2 2.6 0.2Q-0.25-0.7 0.5-3L0.5-3 11.9-37.65Q12.15-38.45 12.78-39 13.4-39.55 14.25-39.65L14.25-39.65Q15.1-39.8 15.9-39.88 16.7-39.95 17.15-39.95L17.15-39.95Q17.6-39.95 18.4-39.88 19.2-39.8 20.05-39.7L20.05-39.7Q20.75-39.6 21.43-38.95 22.1-38.3 22.45-37.65L22.45-37.65Q25.25-29.05 28.13-20.33 31-11.6 33.8-3L33.8-3Q34.5-0.7 31.7 0.2L31.7 0.2Q31.3 0.3 30.98 0.38 30.65 0.45 30.25 0.45L30.25 0.45Q29.55 0.45 28.98-0.03 28.4-0.5 28.15-1.25L28.15-1.25 28.15-1.2ZM20.9-12L20.9-12Q20.9-10.4 19.78-9.28 18.65-8.15 17.05-8.15L17.05-8.15Q15.45-8.15 14.35-9.28 13.25-10.4 13.25-12L13.25-12Q13.25-13.6 14.35-14.73 15.45-15.85 17.05-15.85L17.05-15.85Q18.65-15.85 19.78-14.73 20.9-13.6 20.9-12ZM51.95 0L45.4 0Q43.85 0 42.45-0.43 41.05-0.85 39.75-1.65L39.75-1.65 39.75-1.6Q37.3-3.15 37.3-7.3L37.3-7.3 37.3-9.75Q37.3-11.8 38.02-13.33 38.75-14.85 40.05-15.75L40.05-15.75 40-15.75Q41.25-16.6 42.65-17.03 44.05-17.45 45.35-17.45L45.35-17.45 56.4-17.45 56.4-22.1Q56.4-23.35 55.62-24.38 54.85-25.4 53-25.4L53-25.4 47.15-25.4Q45.25-25.4 44.52-24.48 43.8-23.55 43.8-22.3L43.8-22.3 43.8-21.9Q43.8-19.3 41-19.3L41-19.3Q38.2-19.3 38.2-21.9L38.2-21.9 38.2-22.35Q38.2-24.4 38.92-25.8 39.65-27.2 40.9-28.15L40.9-28.15 40.85-28.15Q42.15-29 43.57-29.55 45-30.1 46.3-30.1L46.3-30.1 53.9-30.1Q55.15-30.1 56.57-29.55 58-29 59.25-28.15L59.25-28.15 59.2-28.15Q60.5-27.2 61.2-25.68 61.9-24.15 61.9-22.15L61.9-22.15 61.9-2.1Q61.9 0.3 59.15 0.3L59.15 0.3Q58.6 0.3 58.12 0.25 57.65 0.2 57.27-0.03 56.9-0.25 56.67-0.68 56.45-1.1 56.45-1.8L56.45-1.8 56.4-12.75 46.3-12.75Q45.2-12.75 44.6-12.5 44-12.25 43.65-11.7L43.65-11.7Q43.25-10.85 43.07-10.38 42.9-9.9 42.9-9.3L42.9-9.3 42.9-7.35Q42.9-6.05 43.67-5.38 44.45-4.7 46.35-4.7L46.35-4.7 51.95-4.7Q53.8-4.7 53.8-2.35L53.8-2.35Q53.8-1.35 53.35-0.68 52.9 0 51.95 0L51.95 0ZM84.4 0L78.45 0Q76.65 0 76.55-2.35L76.55-2.35Q76.55-4.7 78.45-4.7L78.45-4.7 83.5-4.7Q85.35-4.7 86.12-5.75 86.9-6.8 86.9-8L86.9-8 86.9-22.1Q86.9-23.35 86.12-24.43 85.35-25.5 83.45-25.4L83.45-25.4 73.85-25.4 73.85 4.65Q73.85 7 71.1 7L71.1 7Q68.35 7 68.35 4.6L68.35 4.6 68.35-27.15Q68.35-28.9 69.25-29.5 70.15-30.1 71.45-30.1L71.45-30.1 84.4-30.1Q85.7-30.1 87.02-29.65 88.35-29.2 89.75-28.4L89.75-28.4Q90.95-27.55 91.67-26.03 92.4-24.5 92.4-22.45L92.4-22.45 92.4-7.65Q92.4-3.55 89.75-1.8L89.75-1.8Q86.95 0 84.4 0L84.4 0ZM122.69-28L122.69-7.95Q122.69-5.95 121.99-4.4 121.29-2.85 119.99-1.9L119.99-1.9 120.04-1.9Q118.79-1.05 117.39-0.53 115.99 0 114.69 0L114.69 0 106.64 0Q105.39 0 103.97-0.53 102.54-1.05 101.29-1.9L101.29-1.9 101.34-1.9Q100.04-2.85 99.34-4.4 98.64-5.95 98.64-7.95L98.64-7.95 98.64-28Q98.64-30.4 101.39-30.4L101.39-30.4Q104.14-30.4 104.14-28L104.14-28 104.14-8.35Q104.14-6.95 104.84-5.9L104.84-5.9Q105.49-4.7 107.54-4.7L107.54-4.7 113.79-4.7Q115.79-4.7 116.44-5.9L116.44-5.9 116.39-5.85Q117.19-7.05 117.19-8.35L117.19-8.35 117.19-28Q117.19-30.4 119.94-30.4L119.94-30.4Q122.69-30.4 122.69-28L122.69-28ZM137.84-17.5L145.19-17.5Q146.44-17.5 147.87-16.93 149.29-16.35 150.54-15.5L150.54-15.5 150.49-15.5Q151.79-14.55 152.49-13.05 153.19-11.55 153.19-9.45L153.19-9.45 153.19-7.95Q153.19-3.85 150.49-1.9L150.49-1.9Q149.19-0.9 147.84-0.45 146.49 0 145.19 0L145.19 0 136.69 0Q135.39 0 134.04-0.45 132.69-0.9 131.39-1.9L131.39-1.9Q128.69-3.8 128.69-7.95L128.69-7.95 128.69-8.55Q128.69-10.7 131.44-10.65L131.44-10.65Q134.24-10.65 134.24-8.55L134.24-8.55 134.24-8Q134.24-6.8 134.99-5.75 135.74-4.7 137.64-4.7L137.64-4.7 144.24-4.7Q146.14-4.7 146.89-5.75 147.64-6.8 147.64-8L147.64-8 147.64-9.4Q147.64-10.05 147.47-10.65 147.29-11.25 146.89-11.73 146.49-12.2 145.84-12.5 145.19-12.8 144.24-12.8L144.24-12.8 136.94-12.8Q134.39-12.8 131.59-14.6L131.59-14.6Q128.94-16.3 128.94-20.45L128.94-20.45 128.94-22.15Q128.94-24.15 129.64-25.68 130.34-27.2 131.64-28.15L131.64-28.15 131.59-28.15Q132.84-29 134.24-29.55 135.64-30.1 136.94-30.1L136.94-30.1 144.94-30.1Q146.24-30.1 147.62-29.55 148.99-29 150.29-28.15L150.29-28.15 150.24-28.15Q151.54-27.2 152.24-25.68 152.94-24.15 152.94-22.15L152.94-22.15 152.94-21.7Q152.94-20.65 152.24-20.18 151.54-19.7 150.19-19.65L150.19-19.65Q147.44-19.6 147.44-21.7L147.44-21.7 147.44-22.1Q147.44-23.35 146.67-24.38 145.89-25.4 144.04-25.4L144.04-25.4 137.84-25.4Q135.99-25.4 135.22-24.38 134.44-23.35 134.44-22.1L134.44-22.1 134.44-20.9Q134.44-19.6 135.22-18.55 135.99-17.5 137.84-17.5L137.84-17.5ZM165.19-25.4L165.19-2.1Q165.19 0.3 162.44 0.3L162.44 0.3Q159.69 0.3 159.69-2.1L159.69-2.1 159.69-37.6Q159.69-40 162.44-40L162.44-40Q165.19-40 165.19-37.6L165.19-37.6 165.19-30.1 175.74-30.1Q178.29-30.1 181.04-28.2L181.04-28.2Q183.74-26.3 183.74-22.2L183.74-22.2 183.74-2.1Q183.74 0.3 180.99 0.3L180.99 0.3Q178.24 0.3 178.24-2.1L178.24-2.1 178.24-21.75Q178.24-23.05 177.44-24.25L177.44-24.25 177.49-24.2Q176.84-25.4 174.84-25.4L174.84-25.4 165.19-25.4ZM198.39-39.7L203.64-39.7Q204.89-39.7 206.29-39.15 207.69-38.6 208.99-37.75L208.99-37.75 208.94-37.75Q210.24-36.8 210.94-35.27 211.64-33.75 211.64-31.75L211.64-31.75 211.64-8Q211.64-5.9 210.94-4.42 210.24-2.95 208.94-1.95L208.94-1.95Q207.64-1 206.29-0.48 204.94 0.05 203.64 0.05L203.64 0.05 198.39 0.05Q197.09 0.05 195.71-0.48 194.34-1 193.04-1.95L193.04-1.95Q191.74-2.95 191.01-4.42 190.29-5.9 190.29-8L190.29-8 190.29-31.75Q190.29-33.75 191.01-35.27 191.74-36.8 193.04-37.75L193.04-37.75 192.99-37.75Q194.29-38.6 195.69-39.15 197.09-39.7 198.39-39.7L198.39-39.7ZM199.59-5L202.34-5Q204.19-5 204.96-6.05 205.74-7.1 205.74-8.4L205.74-8.4 205.74-31.3Q205.74-32.55 204.96-33.6 204.19-34.65 202.34-34.65L202.34-34.65 199.59-34.65Q197.74-34.65 196.96-33.6 196.19-32.55 196.19-31.3L196.19-31.3 196.19-8.4Q196.19-7.1 196.96-6.05 197.74-5 199.59-5L199.59-5ZM227.63-30.6L220.43-30.6Q219.23-30.6 219.18-32.25L219.18-32.25Q219.13-33.95 220.43-33.95L220.43-33.95Q221.23-33.95 222.33-34.15 223.43-34.35 224.78-34.7L224.78-34.7Q226.03-35.15 226.98-36.23 227.93-37.3 228.33-38.75L228.33-38.75Q228.63-39.55 229.33-40.05 230.03-40.55 231.18-40.5L231.18-40.5Q233.53-40.4 233.53-38.05L233.53-38.05 233.53-1.55Q233.53 0.8 230.58 0.8L230.58 0.8Q227.63 0.8 227.63-1.55L227.63-1.55 227.63-30.6Z" opacity="1" transform="matrix(1,0,0,1,0,0)" fill="#ffffff" class="wordmark-text-0" data-fill-palette-color="primary" id="text-0"></path></svg></g></svg></g></svg></g></svg></g></svg></g><defs></defs></svg><rect width="395.52" height="80.56815723498755" fill="none" stroke="none" visibility="hidden"></rect></g></svg></g></svg>