<?xml version="1.0" standalone="no"?>
<!DOCTYPE svg PUBLIC "-//W3C//DTD SVG 20010904//EN"
 "http://www.w3.org/TR/2001/REC-SVG-20010904/DTD/svg10.dtd">
<svg version="1.0" xmlns="http://www.w3.org/2000/svg"
 width="300.000000pt" height="323.000000pt" viewBox="0 0 300.000000 323.000000"
 preserveAspectRatio="xMidYMid meet">
<metadata>
Created by potrace 1.10, written by Peter Selinger 2001-2011
</metadata>
<g transform="translate(0.000000,323.000000) scale(0.100000,-0.100000)"
fill="#000000" stroke="none">
<path d="M204 3128 c17 -275 17 -341 4 -336 -7 3 -22 2 -33 -3 -18 -7 -18 -8
5 -9 24 -1 24 -1 5 -15 -17 -14 -18 -17 -3 -31 14 -14 16 -12 23 18 5 22 9 27
12 16 2 -10 9 -18 14 -18 5 0 9 -7 9 -15 0 -8 -7 -15 -15 -15 -8 0 -14 -3 -14
-7 1 -5 1 -15 -1 -23 -1 -11 -4 -9 -10 5 -8 19 -9 19 -9 -3 -1 -19 -5 -22 -23
-16 -31 9 -33 11 -19 27 8 10 8 22 0 46 -13 37 -39 42 -39 6 0 -16 6 -25 15
-25 17 0 20 -26 5 -35 -8 -5 -7 -11 1 -21 8 -10 8 -14 0 -14 -6 0 -11 5 -11
10 0 6 -7 10 -15 10 -8 0 -15 -7 -15 -15 0 -8 4 -15 8 -15 5 0 10 -15 11 -32
1 -18 3 -43 4 -55 3 -33 23 -49 41 -34 12 10 13 16 3 26 -7 7 -15 11 -20 8 -4
-2 -7 1 -7 6 0 22 36 10 52 -16 21 -34 22 -22 4 32 -11 29 -11 44 -3 55 6 8
-3 0 -21 -17 -38 -40 -42 -41 -38 -5 5 38 5 39 16 22 8 -13 10 -12 10 3 0 9 3
16 8 15 4 -1 18 2 31 6 18 6 28 4 37 -9 17 -23 7 -40 -13 -23 -13 10 -15 9
-12 -6 2 -11 13 -20 25 -22 17 -3 20 1 19 24 -1 15 -6 39 -10 53 -5 21 -2 30
15 42 21 15 22 17 6 47 -8 18 -13 36 -11 40 3 5 0 10 -7 12 -18 6 -1 56 19 54
10 0 20 -4 23 -8 3 -4 12 -3 20 3 13 8 13 10 1 18 -8 5 -21 7 -29 3 -12 -4
-14 0 -9 18 4 17 3 20 -6 11 -6 -6 -18 -11 -26 -11 -11 0 -9 6 7 23 24 25 30
59 10 52 -10 -4 -14 21 -16 102 -3 117 -8 143 -24 143 -7 0 -8 -33 -4 -102z"/>
<path d="M301 3173 c1 -93 17 -111 18 -20 1 45 -3 77 -9 77 -6 0 -10 -25 -9
-57z"/>
<path d="M548 3205 c3 -18 0 -25 -12 -25 -17 0 -22 -15 -8 -24 12 -7 52 48 44
60 -14 19 -29 12 -24 -11z"/>
<path d="M656 3222 c-10 -17 -10 -76 0 -79 7 -2 10 8 7 31 l-3 35 27 -14 c35
-18 44 -19 37 -2 -5 15 -62 39 -68 29z"/>
<path d="M755 3220 c-3 -6 0 -10 7 -10 7 0 24 -3 38 -6 20 -6 23 -4 13 7 -16
16 -50 22 -58 9z"/>
<path d="M1047 3224 c-5 -6 -31 -12 -54 -13 -7 -1 -13 -8 -13 -17 0 -11 5 -14
18 -9 9 4 24 8 32 8 19 0 43 24 31 31 -4 3 -11 3 -14 0z"/>
<path d="M1115 3209 c-4 -11 -4 -23 -1 -26 3 -4 6 2 6 11 0 15 5 17 27 11 15
-3 30 -10 33 -14 3 -5 16 -11 30 -15 14 -3 19 -3 13 0 -7 3 -13 12 -13 20 0 8
6 14 13 14 6 0 4 5 -7 11 -14 9 -20 8 -26 -1 -4 -7 -13 -9 -19 -6 -26 17 -50
14 -56 -5z"/>
<path d="M1250 3218 c0 -4 7 -8 15 -8 9 0 25 -16 36 -35 25 -41 32 -45 19 -10
-13 35 7 33 23 -2 6 -16 15 -31 20 -34 5 -3 8 -10 7 -15 0 -5 10 -11 22 -12
13 -2 28 -8 33 -12 6 -4 24 -10 40 -11 17 -2 33 -8 37 -14 4 -5 10 -6 13 -3
12 11 -19 35 -38 30 -11 -3 -24 3 -33 17 -12 17 -19 19 -35 10 -28 -15 -36 -8
-28 21 4 15 7 18 8 8 1 -23 27 -13 34 13 3 10 1 19 -4 19 -5 0 -9 -5 -9 -11 0
-5 -5 -7 -10 -4 -6 4 -7 11 -4 17 4 6 0 14 -7 19 -12 8 -12 11 1 19 13 9 13
10 0 10 -8 0 -21 -9 -28 -20 -7 -12 -8 -20 -2 -20 5 0 10 -8 10 -17 -1 -16 -2
-16 -15 1 -8 11 -15 28 -15 38 0 10 -4 18 -10 18 -5 0 -7 -7 -4 -15 4 -8 2
-15 -4 -15 -5 0 -12 7 -16 15 -5 15 -56 18 -56 3z"/>
<path d="M1810 3197 c0 -18 6 -39 12 -45 10 -10 10 -15 0 -21 -11 -7 -10 -10
3 -15 9 -3 24 -6 33 -6 14 0 14 2 3 9 -13 8 -17 25 -20 84 -2 41 -31 36 -31
-6z"/>
<path d="M2111 3185 c-1 -27 -3 -69 -5 -92 -2 -38 0 -42 26 -47 15 -3 35 -3
43 -1 8 3 22 7 31 10 8 3 13 9 9 14 -3 6 -17 6 -36 -1 -25 -9 -32 -7 -44 8
-21 28 -19 81 4 94 42 22 60 13 64 -32 4 -39 4 -38 3 7 -1 53 -9 59 -63 41
-18 -6 -22 -3 -26 21 -2 18 -5 9 -6 -22z"/>
<path d="M2367 2955 c6 -266 6 -275 -13 -274 -10 0 -53 6 -94 12 -68 11 -89
10 -230 -14 -91 -16 -162 -23 -171 -18 -9 4 -25 5 -37 2 -13 -3 -22 -1 -22 6
0 6 -7 11 -16 11 -32 0 -6 -25 34 -33 50 -10 56 -26 10 -23 -23 1 -33 -4 -36
-16 -2 -13 3 -18 17 -18 11 0 21 -6 24 -12 2 -7 2 -3 0 10 -4 25 6 28 26 10 8
-7 11 -8 8 -2 -11 20 17 43 60 50 39 6 42 5 48 -19 4 -14 15 -33 26 -43 22
-20 26 -9 4 12 -8 9 -15 24 -15 35 0 20 4 21 95 23 l50 1 3 -77 c2 -62 6 -78
18 -78 13 0 15 15 12 95 -2 52 0 95 3 95 7 0 192 -26 292 -42 54 -8 77 -16 77
-26 0 -10 8 -12 33 -6 39 9 45 9 127 1 43 -5 58 -4 45 2 -11 5 -38 10 -60 10
-52 2 -72 13 -51 30 23 19 69 102 61 109 -4 4 -12 -1 -19 -11 -67 -110 -70
-112 -111 -109 -22 1 -62 8 -90 15 l-50 12 0 150 c0 96 4 149 10 148 6 -1 22
-4 35 -7 14 -4 32 -2 40 4 13 9 13 11 0 20 -12 7 -16 36 -18 125 -4 108 -5
115 -24 115 -19 0 -20 -4 -14 -52 3 -29 6 -73 7 -98 0 -34 2 -40 9 -25 7 17 9
15 9 -12 1 -39 -25 -69 -45 -52 -11 9 -14 8 -14 -4 0 -9 -7 -14 -17 -13 -16 3
-18 18 -21 129 -1 71 -7 127 -12 127 -6 0 -7 -105 -3 -275z"/>
<path d="M2523 3175 c0 -33 2 -45 4 -27 2 18 2 45 0 60 -2 15 -4 0 -4 -33z"/>
<path d="M2764 3083 c3 -82 7 -221 8 -310 3 -162 3 -163 25 -163 21 0 23 -5
23 -54 0 -29 3 -68 6 -85 l7 -31 -74 6 c-41 3 -107 9 -146 13 -47 5 -77 3 -84
-3 -9 -8 -10 -8 -6 0 4 7 -44 15 -151 23 -113 9 -157 10 -160 2 -2 -6 -8 -8
-14 -5 -6 4 -8 -1 -6 -12 2 -14 14 -18 58 -20 30 -2 96 -6 145 -10 86 -7 89
-8 58 -20 -17 -8 -34 -17 -37 -22 -8 -14 41 -12 84 3 42 15 159 29 240 30 l45
0 6 -145 c4 -80 7 -164 8 -186 1 -39 2 -41 29 -37 80 12 75 6 70 93 -4 73 -17
110 -39 110 -5 0 -9 -4 -9 -10 0 -5 7 -10 16 -10 13 0 14 -3 4 -15 -7 -9 -12
-42 -11 -85 1 -66 -9 -90 -23 -54 -10 25 -7 185 3 229 11 45 6 60 -8 24 -9
-22 -10 -21 -10 14 -1 26 3 37 14 37 8 0 15 7 15 15 0 8 -8 15 -17 15 -13 0
-15 2 -5 9 16 10 13 351 -3 351 -11 0 -13 27 -21 278 -5 166 -6 172 -26 172
-20 0 -20 -3 -14 -147z"/>
<path d="M2870 3220 c0 -5 7 -10 15 -10 12 0 14 -22 10 -150 -2 -82 -6 -154
-9 -159 -8 -12 18 -21 52 -20 17 1 21 3 9 6 -9 2 -15 8 -12 13 3 5 1 11 -5 15
-5 3 -10 22 -10 41 0 19 -5 34 -11 34 -6 0 -4 7 5 15 11 11 13 22 6 39 -4 12
-8 52 -8 87 1 96 0 99 -22 99 -11 0 -20 -4 -20 -10z"/>
<path d="M2938 3158 c5 -114 9 -122 11 -20 0 50 -3 92 -7 92 -4 0 -6 -33 -4
-72z"/>
<path d="M931 3197 c-12 -32 -31 -44 -32 -20 0 11 -3 13 -6 5 -2 -6 -9 -10
-14 -6 -5 3 -12 -3 -16 -13 -7 -19 -28 -43 -37 -43 -3 0 -6 11 -6 25 0 29 -8
32 -26 8 -8 -11 -13 -13 -14 -5 0 19 -20 14 -20 -5 -1 -17 -1 -17 -14 0 -14
18 -32 24 -21 7 3 -5 2 -10 -4 -10 -5 0 -13 5 -16 10 -3 6 -12 10 -18 10 -7 0
-4 -7 6 -14 9 -7 17 -21 17 -30 0 -9 4 -16 9 -16 18 0 21 -33 4 -45 -16 -12
-14 -12 10 -8 16 3 26 11 24 17 -3 8 4 11 22 9 30 -4 77 18 74 35 -3 13 49 17
61 5 4 -4 22 -6 40 -5 33 3 54 -17 40 -39 -3 -5 1 -9 9 -9 10 0 13 7 10 20 -3
11 0 20 6 20 6 0 11 -4 11 -8 0 -4 10 -9 22 -9 14 -1 18 1 10 6 -7 4 -24 23
-38 42 -25 33 -25 33 -19 7 8 -32 -2 -36 -21 -10 -10 13 -13 14 -14 3 0 -11
-4 -10 -16 5 -11 13 -17 15 -20 7 -8 -18 -24 -16 -24 2 0 9 7 18 15 21 8 4 15
13 15 21 0 13 2 13 18 2 16 -13 16 -13 2 6 -8 11 -15 22 -17 24 -1 2 -7 -8
-12 -22z m-131 -75 c0 -10 -22 -32 -32 -32 -13 0 -9 28 5 33 19 8 27 8 27 -1z"/>
<path d="M1470 3206 c0 -8 -6 -16 -12 -19 -10 -4 -10 -7 0 -18 10 -11 12 -10
12 4 0 9 5 17 10 17 6 0 10 -7 10 -16 0 -8 5 -12 10 -9 16 10 12 29 -10 43
-16 10 -20 10 -20 -2z"/>
<path d="M1565 3181 c-8 -28 3 -61 21 -61 18 0 18 39 0 63 -14 18 -14 17 -21
-2z"/>
<path d="M1053 3173 c-4 -9 -1 -19 5 -21 7 -2 12 -11 12 -20 0 -15 -2 -15 -11
-2 -8 12 -10 12 -7 -5 2 -11 11 -21 22 -23 14 -3 17 0 11 17 -4 12 -2 21 4 21
6 0 11 5 11 11 0 6 -7 9 -15 6 -8 -4 -17 -2 -20 3 -4 6 -1 10 4 10 6 0 11 5
11 10 0 16 -20 11 -27 -7z"/>
<path d="M1130 3170 c0 -11 -4 -20 -8 -20 -4 0 -15 -16 -24 -36 -9 -20 -14
-33 -11 -30 3 3 21 -1 40 -9 44 -19 42 -19 36 4 -3 12 -11 17 -19 14 -8 -3
-14 0 -14 7 0 6 -4 8 -10 5 -15 -9 -12 4 5 21 13 14 18 13 43 -4 23 -17 30
-18 45 -7 9 7 17 18 17 26 0 8 -5 6 -14 -6 -12 -17 -14 -17 -37 -1 -13 9 -25
21 -25 26 -1 6 -2 15 -3 20 -2 19 -21 10 -21 -10z"/>
<path d="M368 3163 c-3 -4 -2 -19 1 -32 5 -19 8 -21 18 -10 9 11 8 18 -2 32
-7 10 -15 15 -17 10z"/>
<path d="M1520 3161 c0 -6 -9 -11 -19 -11 -11 0 -23 -5 -27 -12 -5 -8 -2 -9 9
-5 12 4 17 1 17 -10 0 -9 3 -13 7 -10 3 4 12 -1 20 -11 13 -15 13 -15 4 5 -14
27 -14 46 -1 38 6 -3 10 -2 10 4 0 5 -4 13 -10 16 -5 3 -10 1 -10 -4z"/>
<path d="M1286 3117 c1 -12 3 -28 3 -35 1 -10 5 -10 21 0 16 10 23 9 43 -10
19 -18 28 -21 48 -13 22 9 21 11 -6 16 -28 4 -55 18 -55 27 0 6 -9 8 -20 5
-13 -3 -20 0 -20 8 0 8 -4 16 -8 19 -5 3 -7 -5 -6 -17z"/>
<path d="M1717 3122 c-11 -12 -13 -22 -7 -32 9 -13 10 -13 11 0 0 10 3 8 9 -5
5 -11 9 -15 9 -9 2 21 33 25 47 7 13 -17 13 -17 14 3 0 13 -8 24 -20 27 -11 3
-20 1 -20 -4 0 -6 -6 -4 -14 3 -8 7 -12 16 -9 21 8 13 -4 7 -20 -11z"/>
<path d="M1937 3126 c-9 -9 -24 -13 -38 -9 -17 4 -21 2 -14 -5 6 -6 22 -14 37
-17 21 -5 27 -3 33 15 9 28 1 35 -18 16z"/>
<path d="M464 3117 c-8 -9 -7 -16 2 -24 14 -14 24 -7 24 19 0 21 -10 23 -26 5z"/>
<path d="M558 3100 c2 -17 9 -33 14 -36 6 -4 8 2 3 15 -3 11 -2 21 3 21 6 0
12 7 16 15 4 11 -1 15 -18 15 -19 0 -22 -4 -18 -30z"/>
<path d="M630 3115 c0 -29 53 -57 63 -32 4 10 -2 13 -19 11 -14 -1 -28 5 -34
14 -5 10 -9 13 -10 7z"/>
<path d="M1231 3093 c-7 -8 -22 -12 -32 -10 -15 4 -19 0 -19 -24 0 -16 4 -29
10 -29 5 0 7 7 4 15 -5 11 -2 13 10 9 11 -4 15 -13 11 -28 -5 -17 -4 -18 4 -6
9 13 11 13 11 -2 0 -19 35 -42 50 -33 13 8 2 26 -13 23 -7 -2 -13 2 -14 7 -1
6 5 9 12 7 10 -2 13 3 9 13 -7 17 -24 21 -24 5 0 -5 -4 -10 -10 -10 -15 0 -12
28 4 37 7 4 11 15 7 24 -5 15 -8 15 -20 2z"/>
<path d="M1594 3102 c-13 -8 -29 -51 -26 -72 1 -11 0 -11 -4 -2 -5 10 -10 9
-21 -5 -10 -13 -16 -15 -19 -5 -3 6 -12 12 -20 12 -8 0 -14 4 -14 9 0 5 -8 11
-17 15 -10 3 -23 8 -29 11 -14 7 -25 -19 -18 -40 4 -8 15 -15 25 -15 10 0 19
-7 19 -15 0 -8 4 -15 10 -15 5 0 7 7 4 15 -7 17 11 21 21 5 3 -5 21 -10 38 -9
18 0 26 3 19 6 -9 3 -1 14 22 29 20 14 36 30 36 36 0 7 -5 6 -15 -2 -20 -17
-25 -11 -14 19 6 15 14 21 25 17 8 -3 12 -2 9 4 -7 12 -16 12 -31 2z"/>
<path d="M1960 3097 c0 -13 116 -45 126 -35 6 7 -24 38 -37 38 -5 0 -9 -5 -9
-10 0 -7 -8 -6 -22 2 -33 18 -58 20 -58 5z"/>
<path d="M360 3081 c-14 -28 -12 -48 5 -55 13 -4 13 -2 5 14 -8 15 -7 19 7 19
10 0 34 4 53 9 28 7 31 11 17 17 -10 4 -24 2 -32 -5 -17 -14 -50 -6 -40 10 3
5 4 10 1 10 -3 0 -10 -9 -16 -19z"/>
<path d="M500 3093 c0 -16 53 -103 62 -103 16 0 7 30 -12 40 -11 6 -20 18 -20
27 0 13 2 14 17 2 15 -13 15 -12 2 8 -8 14 -16 18 -20 11 -4 -6 -11 -4 -18 8
-6 11 -11 14 -11 7z"/>
<path d="M596 3075 c-4 -14 -11 -25 -16 -25 -6 0 -10 -4 -10 -8 0 -5 7 -9 15
-9 8 0 15 8 15 18 0 10 5 21 10 24 12 8 13 25 1 25 -5 0 -12 -11 -15 -25z"/>
<path d="M1812 3065 c1 -20 7 -36 16 -40 11 -4 13 1 9 23 -3 16 -1 34 6 41 8
8 6 11 -11 11 -18 0 -21 -5 -20 -35z"/>
<path d="M850 3066 c0 -8 7 -17 16 -20 10 -4 14 -12 10 -22 -6 -15 -4 -15 16
0 13 9 31 19 41 23 21 7 23 23 2 23 -8 0 -19 -9 -25 -20 -13 -25 -34 -16 -27
11 4 14 0 19 -14 19 -10 0 -19 -6 -19 -14z"/>
<path d="M1067 3050 c-8 -12 -21 -20 -28 -18 -8 2 -15 -7 -17 -20 -3 -20 -5
-20 -19 -7 -8 8 -18 13 -23 10 -4 -3 -11 2 -14 11 -4 9 -9 14 -13 11 -3 -4 0
-13 6 -21 17 -20 -3 -30 -22 -11 -14 13 -15 11 -13 -20 1 -19 8 -40 16 -47 12
-11 12 -10 2 3 -11 14 -9 20 13 38 21 16 30 18 44 9 14 -9 24 -7 42 5 13 10
20 17 16 17 -5 0 -2 7 7 15 18 19 33 19 52 1 17 -17 19 -30 2 -20 -8 5 -9 0
-6 -14 5 -19 3 -21 -18 -18 -17 3 -27 -1 -31 -11 -6 -14 -7 -14 -14 3 -7 18
-8 17 -15 -4 -5 -17 -9 -20 -15 -11 -6 11 -9 10 -15 -4 -3 -9 -13 -17 -22 -17
-12 0 -13 3 -4 12 16 16 15 28 -2 28 -7 0 -16 -14 -20 -31 -4 -23 -10 -30 -22
-25 -9 3 -21 6 -28 6 -6 0 -19 12 -28 28 l-17 27 -1 -28 c0 -17 -4 -26 -11
-22 -6 4 -8 14 -5 22 3 8 1 13 -5 11 -6 -2 -10 -7 -9 -12 3 -14 -22 -26 -52
-26 -16 0 -28 -4 -28 -10 0 -5 7 -10 16 -10 8 0 13 -4 10 -9 -3 -5 3 -11 14
-14 11 -3 19 -2 18 2 -3 23 6 29 40 27 41 -3 110 -23 130 -39 7 -5 16 -7 19
-3 4 4 1 11 -7 16 -13 8 -13 12 3 27 12 13 17 14 17 4 0 -11 4 -11 18 2 11 10
26 14 40 10 14 -3 22 -1 22 7 0 7 -7 10 -17 6 -17 -7 -17 -6 -2 9 13 13 21 15
37 6 17 -9 21 -7 25 11 4 12 9 19 13 15 4 -4 14 3 22 14 13 18 13 23 -1 37
-15 14 -16 13 -11 -9 l5 -24 -12 22 c-7 13 -20 25 -30 28 -11 4 -19 11 -19 16
0 16 -18 10 -33 -11z"/>
<path d="M286 3045 c-5 -13 5 -20 27 -16 4 0 7 -3 7 -9 0 -5 8 -10 17 -10 15
0 14 2 -3 15 -10 8 -14 15 -9 15 10 0 -15 20 -26 20 -4 0 -9 -7 -13 -15z"/>
<path d="M766 3045 c-3 -8 -1 -15 3 -15 5 0 12 6 14 13 4 10 6 10 6 0 1 -18
21 -16 21 2 0 8 -9 15 -19 15 -10 0 -21 -7 -25 -15z"/>
<path d="M1751 3048 c0 -10 -6 -18 -11 -18 -6 0 -5 -6 2 -14 9 -9 19 -11 30
-5 9 5 19 6 21 2 6 -10 -29 -74 -39 -73 -5 1 -10 -4 -12 -10 -3 -7 5 -11 19
-9 26 4 29 0 29 -31 0 -20 -1 -20 -25 -4 -23 15 -25 15 -19 0 3 -9 12 -16 20
-16 22 0 55 -61 49 -90 -6 -32 12 -55 48 -62 15 -3 27 -4 27 -2 0 22 -23 54
-40 54 -11 0 -20 5 -20 11 0 6 7 9 15 5 20 -7 19 8 -1 24 -8 8 -20 22 -26 33
-9 17 -8 19 6 14 9 -4 16 -2 16 3 0 6 -7 10 -15 10 -18 0 -18 5 -4 32 7 14 8
23 1 30 -6 6 -8 17 -5 24 3 8 0 21 -7 29 -9 10 -9 15 -1 15 18 0 12 19 -10 31
-17 8 -23 8 -29 -2 -6 -8 -10 -5 -13 12 -2 14 -5 17 -6 7z"/>
<path d="M395 3040 c-3 -5 -2 -10 3 -10 6 0 8 -9 5 -20 -3 -11 0 -27 7 -36 11
-13 10 -14 -11 -11 -20 4 -24 0 -25 -19 -2 -20 0 -21 13 -9 8 8 23 15 33 15
13 0 17 5 14 15 -5 11 -2 13 10 9 15 -6 20 -20 19 -51 -1 -18 14 -16 21 2 3 8
1 15 -4 15 -6 0 -10 7 -10 15 0 10 10 15 30 15 27 0 29 2 21 19 -6 10 -7 21
-4 25 3 3 1 6 -6 6 -8 0 -10 -7 -6 -20 8 -25 -9 -26 -27 -2 -15 19 -44 29 -32
11 4 -7 1 -10 -7 -7 -8 3 -15 14 -17 26 -4 23 -17 29 -27 12z"/>
<path d="M829 3013 c4 -15 13 -29 20 -31 10 -3 10 0 3 14 -5 11 -7 25 -5 32 3
6 -2 12 -10 12 -12 0 -14 -6 -8 -27z"/>
<path d="M701 3003 c-1 -18 4 -33 10 -33 5 0 7 5 3 11 -4 7 -1 10 7 7 7 -2 16
-15 20 -29 5 -16 7 -18 8 -6 2 27 41 22 42 -5 0 -16 2 -18 6 -8 3 8 10 18 16
21 13 9 -1 46 -18 46 -8 0 -17 -6 -19 -14 -5 -11 -11 -11 -35 1 -16 9 -31 21
-34 28 -3 7 -6 -2 -6 -19z"/>
<path d="M584 2996 c-11 -8 -15 -18 -10 -23 5 -4 11 -2 13 5 3 6 13 12 24 12
10 0 19 5 19 10 0 14 -23 12 -46 -4z"/>
<path d="M1332 2979 c-11 -17 -9 -21 13 -29 15 -6 31 -10 36 -10 12 0 12 17
-1 25 -8 5 -7 11 1 21 7 9 8 14 1 14 -6 0 -13 -6 -15 -12 -4 -10 -7 -10 -14
-1 -6 9 -12 7 -21 -8z"/>
<path d="M1400 2982 c0 -10 3 -21 6 -25 10 -10 34 5 34 22 0 14 -2 14 -10 1
-8 -13 -10 -12 -10 3 0 9 -4 17 -10 17 -5 0 -10 -8 -10 -18z"/>
<path d="M1645 2990 c-3 -5 -3 -14 0 -20 3 -5 1 -10 -6 -10 -15 0 -3 -13 15
-16 8 -1 13 9 14 27 1 29 -11 38 -23 19z"/>
<path d="M610 2974 c0 -15 27 -37 37 -31 5 3 9 -3 9 -14 0 -21 -7 -24 -23 -8
-7 7 -12 6 -16 -5 -4 -10 -1 -16 8 -16 8 0 15 -8 15 -17 1 -17 1 -17 11 0 5 9
16 17 24 17 8 0 11 7 8 20 -3 13 0 20 8 20 10 1 9 5 -4 14 -10 8 -27 11 -38 9
-12 -4 -25 0 -30 8 -5 8 -9 9 -9 3z"/>
<path d="M1535 2960 c-7 -21 0 -40 14 -40 5 0 11 9 14 20 3 11 1 20 -5 20 -5
0 -6 5 -3 10 3 6 2 10 -4 10 -5 0 -12 -9 -16 -20z"/>
<path d="M2840 2925 c0 -16 6 -25 16 -25 11 0 14 5 10 16 -3 9 -6 20 -6 25 0
5 -4 9 -10 9 -5 0 -10 -11 -10 -25z"/>
<path d="M420 2931 c0 -6 -6 -11 -12 -11 -9 0 -13 -18 -13 -55 0 -30 4 -55 10
-55 5 0 4 -5 -3 -12 -16 -16 -16 -51 0 -46 14 5 38 -15 38 -31 0 -5 5 -13 12
-17 7 -4 8 -3 4 4 -5 8 0 12 13 12 13 0 19 -5 15 -14 -3 -8 -1 -17 5 -21 6 -3
11 -15 11 -25 0 -10 5 -22 12 -26 8 -5 9 -2 5 11 -9 22 9 46 29 38 8 -3 14 0
14 6 0 6 11 11 25 11 29 0 29 0 13 -31 -14 -25 -60 -36 -51 -12 3 7 2 13 -1
13 -4 0 -11 -12 -16 -26 -6 -14 -14 -22 -20 -19 -5 3 -10 0 -10 -8 0 -8 7 -17
15 -21 9 -3 15 0 15 9 0 8 5 15 11 15 6 0 8 -12 5 -32 -3 -18 -3 -27 0 -20 12
25 25 11 22 -25 -4 -50 -14 -55 -54 -30 -40 26 -44 40 -9 31 19 -5 25 -2 25 9
0 9 -4 19 -10 22 -5 3 -10 2 -10 -3 0 -6 -11 -13 -24 -16 -13 -3 -27 -13 -30
-22 -6 -17 12 -60 21 -50 4 3 12 1 20 -5 16 -14 18 -53 2 -43 -12 7 -29 -12
-29 -33 0 -7 5 -13 11 -13 6 0 9 7 6 15 -7 18 9 30 16 13 4 -8 8 -4 12 10 4
12 15 22 25 22 10 0 22 9 25 20 3 11 10 20 16 20 5 0 7 20 4 45 -2 25 -1 45 1
45 14 0 34 -31 34 -51 0 -28 5 -23 14 14 5 20 3 27 -9 27 -8 0 -15 5 -15 11 0
5 5 7 11 3 6 -3 15 0 20 7 7 12 11 12 18 1 6 -11 12 -10 26 5 18 17 18 17 13
-5 -3 -12 -2 -20 3 -16 5 3 9 0 9 -5 0 -6 -5 -11 -12 -11 -6 0 -9 -2 -6 -5 8
-8 38 6 38 17 0 5 -7 16 -15 24 -17 18 -20 34 -5 34 6 0 10 -5 10 -12 0 -6 2
-9 5 -6 3 3 2 15 -3 28 l-8 23 -21 -27 c-14 -18 -23 -22 -26 -14 -4 10 -6 10
-6 1 -1 -7 -6 -13 -12 -13 -6 0 -9 7 -5 15 3 8 0 15 -5 15 -6 0 -9 -9 -6 -20
3 -11 1 -20 -4 -20 -5 0 -9 6 -9 13 0 8 -3 8 -8 1 -4 -6 -15 -13 -24 -17 -13
-5 -18 -1 -18 13 0 11 6 20 13 20 7 0 20 9 30 20 9 11 25 20 36 20 10 0 21 7
25 15 8 21 36 19 37 -2 0 -15 2 -15 8 2 5 11 7 23 5 27 -2 3 5 4 16 1 16 -4
20 0 20 21 0 14 -5 26 -11 26 -8 0 -8 5 1 15 10 12 9 15 -7 15 -10 0 -24 5
-31 12 -26 26 -12 -16 15 -44 27 -28 28 -51 0 -24 -8 8 -24 13 -36 11 -12 -2
-21 0 -21 6 0 12 -27 12 -35 -1 -3 -5 2 -21 11 -35 16 -24 15 -25 -5 -25 -14
0 -21 6 -21 19 0 11 -4 23 -10 26 -5 3 -10 1 -10 -4 0 -6 -5 -11 -11 -11 -6 0
-8 9 -4 21 6 18 5 19 -14 7 -12 -7 -21 -20 -21 -29 0 -16 -20 -29 -43 -29 -7
1 -6 5 3 13 17 13 19 25 6 45 -6 11 -11 10 -26 -3 -17 -15 -19 -15 -38 6 -12
12 -27 19 -36 16 -9 -4 -16 -2 -16 4 0 5 6 12 14 15 11 4 12 13 5 37 -12 44
-11 55 5 34 8 -10 20 -15 29 -11 10 3 20 -2 27 -15 6 -12 17 -21 25 -21 8 0
16 -4 16 -10 1 -5 3 -14 4 -20 1 -5 3 -13 4 -17 1 -5 5 -2 10 6 11 17 -2 35
-57 80 -18 15 -20 20 -7 25 8 3 15 11 15 18 0 9 -3 9 -11 1 -17 -17 -51 -4
-44 17 3 10 1 21 -5 25 -5 3 -10 1 -10 -4z"/>
<path d="M1190 2927 c0 -18 21 -37 40 -37 13 1 12 3 -2 14 -10 7 -15 15 -12
18 2 3 -2 8 -11 11 -8 4 -15 1 -15 -6z"/>
<path d="M1441 2924 c-16 -12 -44 -16 -93 -16 -66 1 -90 -9 -31 -13 16 -1 37
-5 47 -10 14 -6 17 -5 12 3 -4 7 -3 12 3 12 5 0 12 -6 14 -12 4 -10 6 -10 6 0
1 6 9 12 19 12 11 0 27 9 37 20 22 24 17 25 -14 4z"/>
<path d="M556 2921 c-4 -7 -14 -10 -22 -7 -8 3 -14 1 -14 -4 0 -6 5 -10 10
-10 17 0 11 -28 -7 -39 -10 -5 -14 -13 -10 -17 5 -5 12 -2 16 5 5 7 14 11 20
7 6 -4 20 -2 32 4 18 10 19 13 6 28 -8 9 -16 24 -19 32 -3 11 -6 11 -12 1z"/>
<path d="M1650 2928 c-1 -5 -3 -12 -4 -17 0 -5 -4 -13 -8 -17 -12 -12 -9 -56
3 -49 6 4 8 14 4 23 -3 8 -1 19 6 22 6 4 9 16 6 26 -3 11 -6 16 -7 12z"/>
<path d="M1519 2906 c8 -10 9 -16 1 -19 -6 -3 -5 -4 2 -3 7 1 22 -9 33 -23 45
-57 46 -58 30 -58 -8 0 -15 6 -15 14 0 7 -9 13 -19 13 -10 0 -22 7 -25 16 -4
9 -9 14 -12 11 -3 -3 -1 -15 6 -26 17 -32 -13 -28 -35 5 -9 14 -19 23 -22 21
-2 -3 3 -17 13 -31 19 -31 15 -38 -23 -42 -16 -1 -32 -2 -37 -3 -5 -1 -6 -4
-3 -8 8 -8 -45 -41 -90 -57 -25 -8 -30 -15 -23 -26 7 -11 14 -12 32 -4 36 16
160 75 192 92 27 14 30 13 43 -3 7 -11 13 -28 13 -39 0 -12 9 -45 19 -75 18
-55 31 -53 31 5 0 14 4 23 10 19 5 -3 7 -13 4 -23 -5 -13 -4 -14 4 -4 5 8 11
13 13 11 9 -5 49 13 49 22 0 13 -9 11 -27 -6 -19 -19 -39 -9 -22 11 6 8 9 17
5 21 -3 3 -6 2 -6 -4 0 -6 -11 -13 -25 -16 -14 -2 -24 -2 -21 1 3 2 -1 11 -9
19 -8 8 -15 22 -14 31 0 12 3 11 9 -5 13 -32 23 -29 17 5 -17 91 -27 113 -69
152 -25 23 -47 28 -29 6z"/>
<path d="M1040 2892 c0 -4 10 -12 23 -17 15 -7 21 -17 19 -32 -2 -13 1 -23 7
-23 6 0 10 18 9 40 -1 23 -5 36 -8 29 -6 -8 -9 -8 -14 0 -8 12 -36 15 -36 3z"/>
<path d="M352 2878 c-8 -8 -7 -20 3 -46 15 -34 15 -34 -9 -28 -14 3 -28 1 -31
-4 -4 -6 -11 -8 -16 -5 -5 3 -6 -1 -3 -9 7 -19 25 -21 42 -4 9 9 12 6 12 -15
0 -18 -6 -27 -17 -29 -10 0 -23 -2 -30 -2 -23 -2 -27 -17 -6 -22 14 -4 21 -14
21 -30 0 -17 -5 -23 -13 -20 -14 5 -28 -18 -18 -28 4 -3 8 -18 9 -32 2 -21 -1
-25 -16 -21 -17 4 -18 2 -9 -14 8 -15 6 -19 -6 -19 -9 0 -14 4 -11 9 9 14 -17
19 -31 6 -6 -7 -9 -22 -6 -34 5 -21 3 -23 -42 -25 -13 -1 -20 -8 -20 -21 0
-11 -4 -26 -8 -32 -5 -8 -4 -13 2 -13 5 0 13 9 16 20 3 11 12 20 20 20 7 0 15
6 18 13 3 9 7 9 18 0 11 -9 14 -7 15 14 3 34 11 39 33 19 17 -16 19 -16 24 5
4 14 11 20 21 16 8 -3 18 -2 21 3 4 6 -1 10 -9 10 -18 0 -22 25 -6 35 6 3 8
17 6 31 -3 13 0 24 6 24 6 0 9 17 6 40 -3 31 0 40 12 40 8 0 16 10 17 23 4 39
9 62 18 77 5 9 4 15 -3 18 -16 5 -15 29 1 35 8 4 7 6 -3 6 -9 1 -21 -4 -28
-11z"/>
<path d="M603 2883 c4 -3 1 -13 -6 -21 -9 -12 -9 -16 1 -19 6 -3 12 -9 12 -15
0 -6 -7 -8 -15 -4 -12 4 -13 2 -2 -14 9 -16 13 -17 17 -5 5 14 33 6 31 -9 -1
-3 1 -6 4 -6 3 0 10 0 15 0 6 0 10 7 10 15 0 8 -4 15 -10 15 -5 0 -6 8 -3 17
5 12 2 15 -10 10 -12 -5 -19 1 -23 18 -3 14 -11 25 -17 25 -6 0 -7 -3 -4 -7z"/>
<path d="M1167 2876 c-9 -7 -17 -19 -17 -26 0 -10 3 -10 15 0 8 6 19 9 25 5 5
-3 10 1 10 9 0 22 -13 26 -33 12z"/>
<path d="M740 2865 c0 -8 3 -14 8 -13 4 1 18 -4 31 -11 16 -9 26 -10 34 -2 8
8 2 13 -21 17 -18 4 -32 10 -32 15 0 5 -4 9 -10 9 -5 0 -10 -7 -10 -15z"/>
<path d="M1110 2848 c3 -56 0 -79 -9 -74 -5 4 -12 0 -14 -6 -4 -10 -8 -10 -16
2 -5 8 -7 18 -4 24 3 5 1 6 -5 2 -6 -4 -18 5 -26 21 l-15 28 -1 -26 c0 -15 7
-32 15 -39 9 -7 14 -19 11 -26 -3 -7 -1 -16 4 -19 6 -4 10 -18 11 -33 1 -26 1
-26 10 6 5 17 14 32 18 32 17 0 81 64 81 79 0 10 -5 7 -13 -8 -6 -14 -18 -26
-24 -29 -16 -5 -17 24 -2 34 8 4 7 9 -2 16 -10 7 -11 11 -2 14 13 6 6 34 -9
34 -5 0 -9 -15 -8 -32z"/>
<path d="M830 2846 c0 -16 11 -20 39 -17 8 2 10 -2 5 -11 -5 -8 3 -6 19 5 15
9 27 13 27 8 0 -9 49 -25 56 -18 3 2 2 11 -1 19 -4 11 -21 14 -63 13 -31 -1
-63 3 -69 8 -9 7 -13 5 -13 -7z"/>
<path d="M1380 2820 c32 -25 43 -25 28 0 -7 11 -22 20 -33 20 -18 0 -18 -2 5
-20z"/>
<path d="M1743 2811 c-9 -24 -8 -31 4 -35 8 -3 11 -10 8 -16 -4 -6 -11 -8 -16
-5 -5 4 -9 -4 -9 -17 0 -17 3 -19 9 -9 5 8 16 11 24 8 9 -3 17 2 20 14 3 10 2
17 -3 14 -9 -6 -22 53 -14 66 3 5 1 9 -3 9 -5 0 -14 -13 -20 -29z"/>
<path d="M780 2785 c-19 -23 -9 -26 40 -10 25 7 38 14 30 14 -8 1 -24 4 -36 7
-12 3 -26 -1 -34 -11z"/>
<path d="M874 2775 c-8 -13 -13 -28 -10 -34 4 -5 -3 -7 -15 -4 -15 4 -17 8 -8
14 8 4 11 10 8 13 -2 3 -11 1 -19 -5 -13 -8 -10 -14 14 -35 34 -30 40 -26 39
24 -1 20 1 29 4 19 2 -9 9 -15 14 -11 6 3 9 -6 7 -23 -2 -21 1 -28 14 -27 10
1 15 -2 12 -7 -3 -5 -1 -9 4 -9 6 0 12 6 15 14 3 7 19 16 36 18 23 3 35 -1 46
-16 l16 -21 -10 21 c-6 12 -8 24 -5 26 2 3 -2 11 -11 18 -13 10 -19 10 -33 -3
-16 -15 -19 -15 -30 4 -7 11 -10 24 -7 28 5 9 -25 25 -32 17 -3 -3 2 -19 11
-37 9 -18 14 -35 10 -38 -7 -8 -23 19 -31 52 -7 33 -18 34 -39 2z"/>
<path d="M1693 2793 c-15 -5 -18 -49 -4 -57 5 -3 11 1 15 9 3 8 1 15 -4 15 -5
0 -7 7 -3 16 5 13 7 13 14 2 6 -9 9 -9 9 -1 0 15 -11 22 -27 16z"/>
<path d="M775 2730 c-3 -6 1 -12 9 -15 9 -3 23 -7 31 -10 8 -2 15 -12 15 -22
-1 -17 -2 -16 -15 1 -8 11 -15 17 -15 14 0 -4 -3 -13 -6 -22 -5 -13 2 -16 35
-16 31 0 41 4 41 16 0 14 -3 14 -15 4 -12 -10 -15 -9 -15 4 0 23 -27 49 -41
40 -8 -4 -9 -3 -5 4 4 7 3 12 -3 12 -5 0 -13 -5 -16 -10z"/>
<path d="M1096 2722 c-4 -7 -2 -12 3 -12 6 0 11 -7 11 -15 0 -8 5 -15 11 -15
5 0 8 -4 5 -9 -3 -5 8 -23 24 -41 17 -18 30 -40 30 -49 0 -9 14 -24 30 -33 26
-15 29 -21 24 -50 -4 -26 -3 -29 5 -17 6 10 9 51 7 95 -3 68 -6 79 -22 82 -15
2 -16 1 -5 -6 9 -6 10 -12 3 -16 -6 -4 -9 -13 -5 -21 11 -31 -23 -14 -41 20
-11 19 -23 35 -28 35 -4 0 -8 10 -8 22 0 12 -3 18 -7 15 -3 -4 -11 1 -18 10
-8 11 -14 13 -19 5z"/>
<path d="M771 2694 c-1 -7 -10 -14 -21 -17 -23 -6 -27 -27 -6 -27 18 0 39 26
33 42 -3 8 -6 9 -6 2z"/>
<path d="M980 2685 c0 -8 6 -15 12 -15 7 0 2 -7 -10 -16 -20 -14 -25 -14 -40
-2 -32 28 -40 28 -56 3 -16 -24 -16 -25 4 -25 12 0 18 5 15 10 -12 20 12 9 33
-15 21 -24 12 -49 -11 -26 -6 6 -20 11 -30 11 -15 0 -18 -5 -14 -22 5 -21 5
-21 -7 -5 -14 18 -36 23 -36 8 0 -6 5 -13 10 -16 16 -10 12 -35 -5 -29 -17 7
-31 44 -19 53 5 3 15 14 22 23 12 15 11 17 -7 15 -11 -1 -23 -7 -26 -15 -3 -8
-12 -11 -21 -8 -31 12 -70 -38 -42 -55 15 -10 50 19 41 34 -3 6 -1 7 5 3 15
-9 16 -46 2 -46 -5 0 -10 -4 -10 -10 0 -5 8 -7 18 -3 14 5 14 2 -4 -18 -15
-17 -19 -31 -15 -49 7 -24 8 -23 24 15 10 22 16 30 13 18 -2 -13 0 -23 5 -23
5 0 9 7 9 15 0 23 37 55 56 48 14 -5 16 -1 12 25 -2 18 -4 32 -3 32 1 0 14
-11 28 -24 16 -14 23 -28 17 -31 -6 -4 -7 -11 -4 -17 10 -16 24 14 17 39 -3
14 -1 23 7 23 6 0 8 5 5 11 -4 6 2 19 13 30 14 12 23 15 28 8 3 -6 0 -15 -7
-21 -10 -6 -7 -8 11 -7 41 2 45 0 24 -15 -15 -11 -22 -12 -34 -3 -13 11 -13
10 -1 -6 12 -14 12 -20 2 -26 -9 -6 -9 -10 1 -19 9 -7 19 -8 28 -2 13 8 12 10
-2 10 -12 0 -15 5 -11 16 4 11 13 13 33 9 19 -4 29 -2 33 9 4 10 1 13 -9 9 -7
-3 -14 -1 -14 5 0 5 7 12 15 16 8 3 15 11 15 18 0 9 -3 9 -12 0 -19 -19 -25
-14 -22 16 2 15 1 20 -2 10 -3 -9 -12 -19 -21 -22 -12 -5 -14 -1 -10 16 4 14
0 26 -11 34 -23 18 -42 17 -42 -1z"/>
<path d="M356 2673 c4 -10 7 -30 6 -45 -1 -32 3 -34 24 -14 19 20 18 32 -6 56
-25 25 -35 26 -24 3z"/>
<path d="M1489 2642 c-22 -14 -25 -20 -15 -37 15 -28 27 -35 56 -34 l25 1 -24
7 -24 6 27 13 c15 7 32 10 37 7 5 -4 9 -2 9 4 0 5 -15 11 -32 13 l-33 4 35 16
35 16 -35 1 c-19 1 -47 -7 -61 -17z"/>
<path d="M452 2630 c-15 -24 -16 -40 -1 -40 5 0 8 4 4 9 -3 5 0 13 6 17 9 5
10 -1 5 -20 -4 -15 -2 -26 4 -26 5 0 10 5 10 11 0 5 4 8 8 5 11 -7 9 48 -3 56
-15 11 -19 10 -33 -12z"/>
<path d="M1707 2637 c-3 -8 5 -14 22 -15 14 -1 28 -7 29 -12 5 -14 22 -2 22
16 0 8 -4 13 -9 10 -5 -4 -21 -2 -34 3 -18 7 -27 6 -30 -2z"/>
<path d="M1650 2620 c-8 -5 -10 -10 -5 -10 6 0 9 -18 8 -42 -2 -24 0 -37 3
-30 3 6 10 12 15 12 6 0 6 -8 -1 -19 -12 -24 -13 -41 0 -21 13 21 24 5 11 -18
-5 -10 -7 -28 -4 -40 4 -18 1 -22 -16 -22 -12 0 -24 -7 -26 -15 -16 -51 -15
-49 -30 -29 -8 10 -15 31 -15 45 0 23 -5 27 -45 32 -24 4 -51 4 -60 1 -8 -4
-15 -1 -15 6 0 6 -10 10 -22 8 -15 -2 -22 -9 -20 -20 2 -11 -9 -23 -27 -33
-27 -13 -29 -18 -21 -40 13 -35 3 -60 -18 -43 -8 7 -18 12 -21 11 -3 -2 -7 2
-7 7 -1 6 -2 15 -3 20 0 6 -8 10 -16 10 -9 0 -24 20 -36 46 -11 26 -22 44 -26
41 -3 -4 0 -20 7 -37 9 -22 10 -34 2 -42 -14 -14 -32 -1 -33 25 -1 18 -2 18
-6 4 -3 -12 -10 -16 -24 -12 -14 5 -19 2 -19 -14 0 -11 4 -23 10 -26 5 -3 7 0
4 8 -4 11 1 13 22 9 24 -4 25 -6 11 -17 -10 -7 -17 -18 -17 -26 1 -10 4 -9 11
4 5 9 19 17 29 17 11 0 20 5 20 10 0 6 5 10 11 10 8 0 8 -4 1 -13 -15 -17 1
-39 21 -31 9 3 17 2 17 -4 0 -19 53 -73 66 -68 8 3 14 2 14 -3 0 -4 7 -8 14
-8 12 0 13 5 5 20 -6 10 -9 28 -6 38 3 10 1 22 -4 25 -22 13 -8 42 24 49 32 7
32 7 7 15 -28 8 -22 12 44 29 41 11 68 5 45 -10 -10 -6 -4 -9 17 -9 28 0 32
-4 38 -36 9 -45 -14 -84 -48 -84 -13 0 -27 -7 -30 -16 -4 -11 -14 -15 -32 -11
-15 3 -23 0 -21 -7 2 -6 22 -9 48 -7 57 4 100 36 124 94 17 41 55 81 55 57 0
-13 47 -13 55 -1 3 5 0 13 -7 17 -6 4 -14 2 -16 -4 -2 -7 -8 -9 -14 -6 -5 4
-3 13 7 24 14 15 14 18 1 23 -8 3 -12 14 -9 25 2 10 -2 36 -11 56 -13 32 -13
38 -1 43 19 7 19 23 1 23 -8 0 -16 4 -18 10 -2 6 -8 6 -18 0z"/>
<path d="M1901 2623 c20 -5 37 -38 41 -76 3 -28 3 -28 14 8 11 34 10 38 -7 42
-10 3 -19 9 -19 14 0 5 7 6 15 3 8 -4 15 -1 15 5 0 6 -16 11 -37 10 -21 -1
-31 -3 -22 -6z"/>
<path d="M1321 2611 c-37 -10 -40 -34 -4 -25 15 4 31 7 35 8 3 0 6 -3 7 -9 1
-5 -12 -14 -29 -18 -36 -9 -38 -19 -6 -36 18 -10 28 -11 42 -1 18 10 17 11 -3
7 -33 -7 -37 8 -7 22 26 11 49 7 39 -9 -3 -4 4 -6 16 -3 15 4 20 12 16 29 -2
13 -1 21 4 19 4 -3 10 -1 13 4 12 18 -72 27 -123 12z"/>
<path d="M49 2594 c-12 -15 -11 -16 9 -10 23 8 32 -9 10 -17 -10 -3 -10 -8 -2
-16 16 -17 38 12 29 39 -8 24 -28 26 -46 4z"/>
<path d="M1702 2584 c-8 -9 -6 -18 8 -34 18 -20 20 -21 26 -5 4 9 15 20 25 23
15 6 13 9 -15 18 -24 7 -36 7 -44 -2z"/>
<path d="M1110 2561 c0 -23 1 -24 20 -6 11 10 20 21 20 24 0 4 -9 7 -20 7 -15
0 -20 -7 -20 -25z"/>
<path d="M1856 2553 c5 -18 3 -24 -4 -19 -8 5 -10 1 -5 -10 5 -13 3 -16 -10
-11 -13 5 -17 1 -17 -18 0 -14 4 -25 9 -25 5 0 18 -3 28 -6 16 -6 15 -5 -2 9
-20 15 -20 15 0 34 23 21 28 60 8 67 -10 4 -12 -1 -7 -21z"/>
<path d="M386 2545 c-2 -5 1 -18 6 -27 7 -14 5 -18 -10 -18 -25 0 -48 26 -30
33 9 4 9 6 1 6 -18 1 -27 -20 -13 -29 10 -6 9 -9 -1 -13 -11 -5 -11 -6 1 -6
30 2 55 -3 42 -8 -6 -2 -10 -8 -7 -13 3 -4 -2 -10 -10 -14 -8 -3 -15 -1 -15 4
0 6 -5 10 -11 10 -5 0 -7 -4 -4 -10 3 -5 1 -10 -5 -10 -6 0 -8 -5 -4 -11 3 -6
9 -7 13 -2 3 5 15 8 26 8 11 0 26 4 33 9 7 5 12 4 12 -3 0 -6 4 -11 9 -11 6 0
6 12 1 31 -7 25 -6 30 5 25 9 -3 15 1 15 10 0 11 -6 13 -21 9 -16 -5 -20 -3
-17 6 3 8 15 14 27 13 11 0 21 5 21 11 0 15 -58 14 -64 0z"/>
<path d="M2690 2555 c0 -15 13 -31 31 -37 13 -5 15 -1 11 19 -3 18 -7 21 -13
11 -7 -11 -11 -10 -19 2 -5 8 -10 11 -10 5z"/>
<path d="M712 2535 c-8 -10 -9 -15 -2 -15 6 0 9 -4 6 -8 -3 -5 10 -9 29 -10
37 -1 41 3 25 28 -6 10 -10 11 -10 3 0 -7 -9 -13 -20 -13 -13 0 -18 5 -14 15
8 19 3 19 -14 0z"/>
<path d="M1755 2514 c-13 -28 -19 -33 -26 -23 -7 11 -9 10 -9 -3 0 -10 6 -19
13 -19 6 -1 22 -3 34 -4 15 -2 20 2 15 13 -3 9 -1 13 5 9 6 -4 13 2 16 13 7
28 -15 20 -30 -10 -9 -19 -12 -21 -13 -7 0 10 5 27 11 39 6 11 9 22 6 24 -2 3
-12 -12 -22 -32z"/>
<path d="M666 2510 c-7 -23 -8 -23 -15 -6 -7 19 -8 19 -16 0 -5 -10 -9 -31
-10 -46 -1 -25 1 -26 15 -13 13 14 13 17 0 26 -13 9 -13 10 1 6 9 -3 22 0 28
6 8 8 11 7 11 -3 0 -11 3 -11 12 -2 9 9 10 15 2 20 -6 4 -13 14 -16 22 -3 10
-7 7 -12 -10z"/>
<path d="M1043 2523 c-21 -7 7 -41 29 -35 10 2 18 7 18 11 0 11 -34 28 -47 24z"/>
<path d="M1130 2510 c0 -13 -3 -21 -6 -17 -3 3 -19 -8 -35 -24 -21 -22 -27
-34 -21 -46 7 -12 11 -9 20 16 6 17 16 31 22 31 6 0 8 -4 5 -10 -3 -5 1 -10 9
-10 8 0 18 5 21 10 3 6 1 10 -6 10 -9 0 -10 3 -3 10 15 15 54 0 54 -21 0 -11
5 -19 10 -19 16 0 11 33 -9 63 -12 19 -21 25 -26 17 -5 -8 -10 -8 -21 1 -11 9
-14 7 -14 -11z"/>
<path d="M1641 2483 c-1 -24 4 -43 9 -43 12 0 12 24 0 60 -7 21 -8 19 -9 -17z"/>
<path d="M0 2495 c0 -10 11 -15 38 -16 20 -1 40 -1 45 0 4 0 7 -7 7 -16 0 -15
2 -16 10 -3 8 12 10 9 10 -12 0 -19 4 -26 14 -22 14 5 14 51 -1 64 -4 4 -34
10 -65 14 -48 5 -58 4 -58 -9z"/>
<path d="M936 2495 c-6 -17 -46 -21 -46 -5 0 6 -9 10 -20 10 -11 0 -20 -5 -20
-12 0 -6 3 -9 6 -5 3 3 14 -2 25 -11 12 -10 33 -15 58 -13 21 1 42 -3 46 -8 3
-6 11 -9 16 -5 6 3 8 -8 5 -28 -8 -55 -18 -78 -35 -79 -10 0 -11 -2 -3 -6 6
-2 13 -17 13 -31 2 -25 2 -25 6 -4 3 13 10 25 17 28 7 3 11 16 8 33 -4 26 -2
28 30 24 18 -1 27 0 21 3 -7 3 -13 12 -13 20 0 8 -5 13 -11 12 -7 -2 -15 9
-20 25 -4 15 -3 27 2 27 4 0 6 7 3 15 -9 23 -24 18 -24 -7 -1 -22 -1 -22 -23
5 -26 31 -33 33 -41 12z"/>
<path d="M2866 2478 c-8 -31 24 -72 58 -76 35 -4 66 23 65 57 0 16 -3 20 -6
11 -10 -25 -63 -49 -63 -29 0 6 -4 7 -10 4 -5 -3 -10 1 -10 9 0 9 -4 16 -10
16 -5 0 -7 7 -4 15 4 8 2 15 -4 15 -5 0 -12 -10 -16 -22z"/>
<path d="M730 2465 c0 -9 -6 -12 -17 -8 -17 6 -17 5 0 -14 9 -11 17 -25 17
-32 0 -7 5 -9 10 -6 6 3 10 3 10 -2 0 -4 11 -13 25 -20 20 -9 25 -8 25 3 0 21
15 17 34 -8 10 -15 16 -18 15 -8 -3 35 1 37 41 30 46 -8 60 8 22 27 -31 17
-32 16 -32 -4 -1 -12 -6 -7 -15 12 -11 25 -14 27 -14 9 -1 -32 -25 -48 -44
-30 -13 14 -16 14 -21 1 -8 -22 -28 -18 -21 4 3 11 1 22 -4 26 -7 3 -8 0 -5
-10 5 -11 2 -14 -10 -9 -11 4 -14 13 -10 30 3 13 3 24 0 24 -3 0 -6 -7 -6 -15z"/>
<path d="M196 2438 c10 -12 14 -18 7 -15 -6 4 -18 -2 -27 -15 -9 -12 -19 -19
-23 -15 -3 4 2 14 13 21 10 8 16 17 13 20 -3 3 -15 -2 -27 -12 l-21 -18 32
-34 c30 -33 32 -33 35 -12 2 12 10 22 17 22 8 0 17 4 20 10 3 6 -1 7 -9 4 -17
-7 -22 11 -6 21 15 9 12 25 -5 25 -8 0 -15 5 -15 10 0 6 -5 10 -12 10 -6 0 -3
-10 8 -22z"/>
<path d="M573 2434 c-3 -8 -12 -13 -19 -10 -7 3 -16 1 -19 -3 -7 -12 21 -22
40 -15 8 4 15 15 15 25 0 23 -8 25 -17 3z"/>
<path d="M1782 2437 c-9 -10 -10 -17 -2 -22 15 -9 12 -25 -6 -25 -8 0 -12 -4
-9 -10 3 -5 14 -10 24 -10 22 0 55 -35 46 -49 -3 -6 -2 -11 3 -11 5 0 12 9 15
20 3 11 1 18 -4 14 -8 -4 -13 16 -11 37 1 4 -8 5 -18 2 -14 -4 -20 0 -20 11 0
12 10 15 44 14 28 -2 42 -6 39 -13 -2 -7 3 -12 11 -12 16 0 11 16 -19 52 -16
20 -16 19 -9 -5 6 -22 5 -23 -9 -12 -9 8 -21 11 -27 7 -5 -3 -10 2 -10 12 0
14 -2 15 -9 4 -6 -10 -10 -10 -13 -1 -3 9 -7 8 -16 -3z"/>
<path d="M316 2415 c10 -8 25 -15 32 -15 6 0 12 -5 12 -11 0 -6 -6 -9 -14 -6
-8 3 -20 0 -26 -8 -9 -11 -7 -16 9 -24 14 -8 21 -8 25 2 3 6 4 -1 0 -17 -5
-26 -3 -28 10 -17 11 10 13 18 6 31 -13 25 -13 30 5 30 8 0 15 -4 15 -10 0 -5
7 -7 15 -4 8 4 23 3 33 -1 26 -12 42 -14 42 -7 0 12 -40 33 -50 27 -6 -4 -10
-2 -10 4 0 6 -7 8 -15 5 -8 -4 -15 -1 -15 6 0 6 -4 8 -10 5 -5 -3 -10 -1 -10
5 0 7 -8 9 -19 5 -11 -3 -22 -1 -26 5 -3 5 -11 10 -18 10 -6 0 -2 -7 9 -15z"/>
<path d="M616 2398 c6 -20 5 -21 -10 -9 -10 9 -16 10 -16 2 0 -6 5 -11 10 -11
6 0 10 -7 10 -15 0 -8 4 -15 10 -15 5 0 7 7 4 15 -5 11 -2 13 10 9 12 -5 15
-2 10 10 -3 9 -10 16 -16 16 -5 0 -6 5 -3 10 3 6 1 10 -5 10 -7 0 -9 -8 -4
-22z"/>
<path d="M951 2404 c-1 -26 -51 -64 -51 -40 0 9 -6 13 -12 11 -7 -3 -13 -22
-13 -44 0 -34 2 -37 18 -27 9 6 17 16 17 23 0 7 7 13 15 13 8 0 15 5 15 10 0
6 9 10 20 10 11 0 20 5 20 11 0 5 -4 8 -9 4 -5 -3 -12 7 -14 22 -3 20 -4 22
-6 7z"/>
<path d="M1090 2394 c0 -8 6 -11 15 -8 8 4 22 1 30 -6 12 -10 15 -9 15 6 0 14
-8 19 -30 20 -19 1 -30 -4 -30 -12z"/>
<path d="M804 2364 c-5 -19 -9 -22 -15 -12 -8 11 -10 11 -18 -1 -5 -7 -14 -10
-20 -7 -17 11 -13 -10 5 -25 14 -11 20 -10 40 14 13 16 24 35 24 43 0 23 -9
16 -16 -12z"/>
<path d="M1667 2377 c-10 -27 -9 -30 13 -24 17 4 22 -1 27 -25 4 -20 8 -26 14
-17 11 18 21 6 13 -15 -11 -28 -48 -14 -49 19 0 6 -11 10 -25 10 -24 -1 -25
-3 -24 -55 1 -35 9 -69 23 -95 11 -22 21 -47 21 -55 0 -8 7 -24 15 -34 14 -19
15 -18 15 10 0 17 -5 35 -12 42 -9 9 -9 18 0 37 8 16 8 25 1 25 -6 0 -8 4 -4
9 3 6 -9 26 -27 46 -26 30 -28 36 -12 33 10 -1 27 -12 37 -23 10 -11 16 -14
12 -8 -4 9 2 11 25 7 17 -4 30 -2 30 4 0 5 12 13 26 16 15 4 24 9 22 11 -2 3
-19 1 -36 -4 -29 -9 -48 2 -20 11 7 3 9 12 5 22 -4 9 -11 14 -17 11 -5 -3 -10
-1 -10 5 0 6 -4 8 -10 5 -5 -3 -10 1 -10 10 0 11 -5 15 -14 12 -9 -4 -16 1
-18 11 -3 15 -4 15 -11 -1z"/>
<path d="M2651 2383 c21 -5 43 -53 31 -65 -5 -5 -46 -9 -91 -10 l-82 0 2 -44
c2 -24 6 -44 11 -44 4 0 8 4 8 9 0 5 8 12 18 14 16 4 16 5 0 6 -28 2 -21 28 9
35 17 5 29 3 35 -6 6 -11 10 -10 17 1 8 12 12 13 26 1 13 -11 19 -10 40 10 27
26 28 24 25 -45 -1 -29 1 -37 10 -29 7 7 9 37 4 92 l-7 82 -36 -1 c-20 -1 -29
-3 -20 -6z"/>
<path d="M120 2371 c0 -6 -7 -11 -15 -11 -8 0 -15 -9 -15 -21 0 -11 5 -17 10
-14 18 11 10 -22 -10 -40 -20 -18 -28 -55 -11 -55 5 0 12 -8 14 -17 4 -17 5
-17 6 0 1 21 11 22 37 2 25 -19 54 -19 54 -1 0 8 -10 22 -22 30 -12 9 -18 19
-14 23 4 5 18 -5 31 -21 23 -28 23 -28 30 -7 4 14 12 20 21 17 8 -3 14 -1 14
5 0 5 6 9 13 8 27 -3 37 2 37 19 0 14 -2 14 -9 3 -8 -12 -12 -12 -24 -2 -12 9
-16 9 -20 -1 -3 -8 -9 -4 -15 12 l-11 25 0 -27 c-1 -20 -5 -26 -16 -22 -8 4
-15 12 -15 19 0 26 -40 3 -49 -29 -6 -21 -10 -24 -10 -11 -1 15 -3 17 -10 6
-5 -7 -14 -10 -20 -7 -18 12 -13 23 19 36 17 7 30 18 30 26 0 8 6 11 18 7 14
-5 15 -3 5 7 -10 11 -16 10 -34 -6 -21 -19 -21 -19 -18 6 2 14 8 28 13 31 4 4
3 10 -3 13 -6 4 -11 2 -11 -3z"/>
<path d="M502 2353 c-14 -15 -29 -22 -39 -19 -13 5 -14 4 -3 -8 9 -12 15 -13
26 -3 34 30 42 35 48 29 4 -3 4 1 0 11 -3 9 -7 17 -8 16 0 -1 -11 -12 -24 -26z"/>
<path d="M1468 2372 c-14 -6 -15 -10 -3 -25 9 -12 15 -14 20 -7 4 6 16 10 28
8 14 -2 23 3 25 15 3 13 -3 17 -25 16 -15 0 -36 -3 -45 -7z"/>
<path d="M2892 2328 l2 -53 3 47 c3 37 7 46 19 41 13 -5 13 -7 2 -14 -10 -7
-9 -9 4 -9 15 0 35 17 27 24 -2 2 -16 6 -31 10 l-28 6 2 -52z"/>
<path d="M2968 2368 c-3 -7 -1 -26 3 -42 5 -16 9 -143 9 -282 1 -140 4 -254 8
-254 13 0 8 568 -4 580 -9 9 -13 8 -16 -2z"/>
<path d="M659 2363 c-1 -5 -1 -11 0 -15 0 -5 -3 -8 -9 -8 -5 0 -10 -4 -10 -10
0 -5 7 -10 15 -10 8 0 15 -7 15 -16 0 -8 5 -12 10 -9 8 5 7 11 -1 21 -6 8 -9
23 -6 34 3 11 1 20 -4 20 -5 0 -10 -3 -10 -7z"/>
<path d="M1064 2357 c-5 -14 -9 -15 -20 -6 -10 8 -14 8 -14 0 0 -12 5 -13 45
-13 69 0 86 3 80 12 -4 6 -21 9 -38 6 -18 -3 -34 0 -39 7 -5 8 -9 6 -14 -6z"/>
<path d="M1916 2355 c7 -18 44 -20 44 -2 0 7 -11 14 -25 15 -18 1 -23 -2 -19
-13z"/>
<path d="M2370 2351 c0 -16 19 -23 40 -16 30 10 24 25 -10 25 -16 0 -30 -4
-30 -9z"/>
<path d="M1173 2338 c1 -7 -11 -15 -28 -19 -24 -5 -25 -7 -7 -8 12 0 22 -5 22
-11 0 -5 -7 -6 -17 -3 -10 4 -14 2 -9 -5 3 -6 2 -13 -3 -16 -5 -4 -11 2 -14
11 -4 17 -4 17 -12 -1 -5 -12 -3 -21 6 -27 21 -13 39 -11 39 6 0 8 7 15 15 15
18 0 19 -11 3 -29 -11 -11 -10 -13 4 -8 10 3 20 2 23 -3 4 -6 0 -10 -8 -10
-17 0 -31 -27 -28 -50 2 -8 0 -12 -4 -8 -7 7 -35 -14 -35 -26 0 -3 10 -6 23
-6 24 0 67 37 67 57 0 6 9 22 20 36 15 19 17 28 8 33 -6 4 -14 2 -16 -4 -5
-15 -22 -16 -22 -1 0 6 -7 17 -15 25 -11 11 -12 20 -5 34 13 24 13 30 0 30 -5
0 -9 -5 -7 -12z"/>
<path d="M1260 2334 c0 -12 7 -24 15 -28 8 -3 15 -13 15 -22 0 -16 -2 -16 -20
1 -11 10 -20 13 -20 7 0 -7 5 -12 10 -12 6 0 8 -12 4 -27 -4 -22 -3 -25 5 -13
9 12 11 11 11 -7 0 -13 -6 -23 -12 -23 -7 0 -22 -12 -32 -27 -20 -27 -8 -25
27 5 16 14 17 14 12 0 -4 -9 4 -40 16 -69 27 -62 38 -49 14 15 -12 30 -15 57
-11 83 4 21 8 49 9 63 1 14 6 31 11 39 7 11 5 11 -10 3 -15 -9 -21 -7 -31 11
l-12 22 -1 -21z"/>
<path d="M2171 2341 c-1 -11 -17 -13 -86 -8 -72 5 -85 4 -85 -9 0 -8 -4 -12
-10 -9 -5 3 -10 0 -10 -7 0 -10 10 -13 35 -10 42 5 44 -1 8 -33 -20 -16 -30
-20 -36 -12 -6 8 -7 7 -4 -3 2 -8 -2 -27 -9 -42 -14 -27 -10 -58 7 -58 5 0 9
6 9 14 0 7 13 30 30 51 16 20 32 45 35 56 4 11 10 17 15 14 5 -3 11 -1 15 4 3
6 23 9 45 8 46 -1 53 3 47 35 -2 12 -5 17 -6 9z"/>
<path d="M1870 2333 c0 -5 4 -15 9 -23 13 -20 2 -34 -15 -19 -12 9 -13 9 -9
-3 3 -8 19 -22 36 -32 23 -14 33 -15 44 -6 8 6 19 9 25 5 13 -8 12 5 -3 33
l-13 23 -14 -25 c-7 -14 -17 -23 -22 -20 -4 3 -6 9 -3 14 3 5 1 11 -5 15 -17
10 -11 25 8 19 14 -5 14 -3 -2 10 -21 17 -36 21 -36 9z"/>
<path d="M598 2318 c-8 -21 3 -88 13 -82 5 3 7 9 4 14 -3 4 2 10 10 14 8 3 18
-1 22 -8 10 -16 55 -16 66 1 9 14 76 35 89 27 15 -9 9 -22 -14 -28 -21 -7 -19
-9 17 -19 25 -8 44 -22 52 -37 9 -19 13 -20 13 -7 0 9 6 18 13 18 6 1 19 3 27
4 8 1 21 3 28 4 6 0 12 5 12 10 0 5 -10 7 -22 4 -23 -5 -23 -4 2 15 13 11 28
18 33 15 5 -3 1 6 -8 21 -20 31 -29 34 -22 7 3 -12 -1 -22 -9 -25 -8 -3 -14
-2 -14 3 0 4 -7 8 -16 8 -12 0 -15 -8 -12 -28 3 -19 0 -25 -9 -22 -7 3 -14 17
-14 32 -1 17 -3 20 -6 8 -7 -27 -26 -15 -39 23 -7 20 -14 28 -18 21 -10 -16
-43 -14 -73 6 l-25 17 7 -32 c4 -19 3 -32 -3 -32 -6 0 -18 -3 -28 -7 -12 -4
-15 -3 -10 6 5 8 1 14 -13 18 -11 3 -23 14 -26 24 -7 22 -21 25 -27 7z"/>
<path d="M481 2303 c-10 -11 -10 -18 -2 -26 15 -15 31 3 22 24 -5 15 -8 15
-20 2z"/>
<path d="M1033 2314 c4 -4 2 -13 -3 -20 -12 -13 15 -48 29 -39 5 2 16 -15 25
-38 13 -33 19 -39 26 -27 7 11 5 16 -5 18 -18 4 -20 19 -4 24 8 3 7 8 -2 19
-8 8 -23 25 -34 39 -17 20 -18 22 -3 17 10 -3 19 -3 22 1 3 4 -9 9 -27 10 -17
2 -28 0 -24 -4z"/>
<path d="M525 2295 c-5 -11 -20 -30 -34 -42 l-26 -22 33 12 c17 6 32 15 32 20
0 4 5 5 10 2 12 -7 12 2 0 30 -8 20 -8 20 -15 0z"/>
<path d="M1830 2273 c0 -14 -2 -15 -9 -5 -6 11 -10 10 -15 -3 -3 -10 -12 -15
-21 -11 -8 3 -15 1 -15 -4 0 -11 24 -13 58 -4 23 7 30 28 12 39 -5 3 -10 -2
-10 -12z"/>
<path d="M2200 2262 c-33 -16 -56 -62 -31 -62 6 0 11 5 11 10 0 6 7 10 15 10
8 0 15 4 15 10 0 5 -8 7 -17 4 -15 -5 -15 -3 1 10 11 9 26 16 33 16 7 0 13 5
13 10 0 12 2 13 -40 -8z"/>
<path d="M992 2258 c-7 -7 -12 -19 -12 -27 -1 -20 -24 -51 -39 -51 -6 0 -11
-4 -11 -9 0 -4 12 -6 27 -3 21 4 25 2 20 -11 -4 -11 -2 -14 9 -10 11 4 12 9 3
19 -15 19 -4 44 20 44 10 0 21 9 24 19 3 15 1 18 -11 14 -11 -5 -14 -2 -9 10
7 20 -4 22 -21 5z"/>
<path d="M411 2240 c-2 -31 -16 -56 -25 -42 -3 6 -4 17 -1 24 4 10 -1 14 -17
13 -17 -1 -23 -8 -23 -25 0 -15 -7 -24 -20 -26 -35 -5 -65 7 -65 27 0 10 -4
19 -10 19 -6 0 -10 -52 -10 -135 l0 -135 60 0 c66 0 71 6 46 56 l-15 27 -12
-26 c-7 -15 -15 -27 -18 -27 -18 1 -28 19 -29 53 -1 37 13 50 24 22 4 -8 11
-15 16 -15 6 0 5 6 -2 15 -10 12 -5 17 28 31 30 11 39 20 35 31 -6 14 -7 14
-18 0 -6 -9 -23 -18 -38 -21 -15 -2 -31 -7 -36 -10 -10 -7 -21 27 -21 64 0 18
3 21 9 11 5 -7 13 -11 19 -7 6 3 13 2 17 -4 4 -6 20 0 40 15 21 17 36 22 40
15 3 -6 11 -8 16 -5 15 10 10 -7 -6 -19 -15 -12 -10 -56 7 -56 5 0 4 9 -2 21
-9 16 -8 23 3 32 9 7 17 21 19 31 1 11 8 21 15 23 19 7 8 -48 -12 -63 -10 -8
-15 -17 -12 -21 8 -7 43 37 39 50 -4 12 19 8 34 -7 8 -8 14 -19 14 -25 0 -5 5
-13 11 -17 8 -4 9 1 4 17 -4 13 -11 25 -16 27 -4 2 -5 10 -2 18 4 10 0 12 -12
8 -11 -5 -21 -1 -27 9 -5 10 -15 17 -23 17 -7 0 -16 8 -18 18 -3 11 -5 9 -6
-8z"/>
<path d="M2430 2239 c-19 -10 -43 -18 -52 -19 -20 0 -105 -64 -132 -98 -30
-37 -70 -72 -83 -72 -17 0 -17 17 0 23 6 2 0 6 -15 9 -19 3 -25 1 -21 -8 3 -8
-3 -12 -16 -11 -12 1 -21 8 -21 15 0 9 -8 5 -20 -11 -11 -14 -20 -28 -20 -33
0 -4 87 -3 193 1 105 4 225 9 265 10 72 3 112 14 56 16 -17 1 -22 3 -11 6 9 2
15 9 12 14 -4 5 4 9 16 9 27 0 89 21 89 31 0 9 -73 0 -84 -12 -6 -5 -19 -9
-29 -9 -11 0 -27 -8 -36 -17 -16 -18 -91 -30 -91 -15 0 9 58 35 118 52 23 7
42 17 42 22 0 4 -3 8 -8 8 -14 0 -114 -39 -135 -53 -25 -16 -92 -34 -157 -42
-35 -5 -41 -3 -27 5 9 6 17 15 17 20 0 17 -23 11 -49 -12 l-25 -23 24 33 c31
45 123 117 168 131 37 11 79 38 71 44 -2 2 -20 -5 -39 -14z"/>
<path d="M2597 2239 c-3 -13 -5 -23 -4 -24 1 0 20 2 42 6 23 3 30 7 16 8 -13
0 -29 8 -36 17 -11 15 -13 15 -18 -7z"/>
<path d="M1402 2193 c32 -31 59 -55 62 -52 8 8 -89 109 -105 109 -8 0 12 -26
43 -57z"/>
<path d="M1720 2241 c0 -11 19 -24 36 -27 7 -1 9 6 7 17 -5 19 -43 27 -43 10z"/>
<path d="M525 2220 c4 -6 21 -17 39 -24 20 -8 39 -26 47 -45 14 -31 32 -40 44
-21 3 6 1 10 -5 10 -24 0 -42 30 -36 58 5 20 4 23 -4 12 -8 -13 -13 -13 -41 3
-34 19 -53 22 -44 7z"/>
<path d="M2072 2195 c-40 -28 -92 -75 -111 -98 -11 -14 -11 -20 -1 -32 19 -22
25 -19 46 25 10 22 23 40 27 40 5 0 6 4 2 10 -9 14 53 42 78 35 17 -5 19 -4 7
4 -12 9 -11 11 8 11 13 0 22 6 22 15 0 22 -40 17 -78 -10z"/>
<path d="M1040 2196 c0 -9 -4 -14 -10 -11 -6 4 -10 -7 -10 -25 0 -18 -6 -33
-15 -36 -8 -4 -15 -15 -15 -25 0 -10 7 -19 15 -19 8 0 15 -5 15 -11 0 -6 -10
-9 -23 -7 -15 3 -24 0 -24 -8 0 -17 24 -26 32 -13 4 5 21 16 38 24 18 7 43 23
57 34 25 20 25 21 3 21 -12 0 -25 -5 -28 -10 -4 -6 -10 -8 -15 -5 -5 3 -11 1
-15 -5 -11 -17 -37 -11 -33 8 2 9 9 16 15 15 10 -2 26 77 17 86 -2 2 -4 -3 -4
-13z"/>
<path d="M1790 2200 c-7 -4 -20 -5 -29 -2 -31 12 20 -31 67 -56 40 -21 47 -23
57 -9 6 8 22 17 35 19 29 4 39 28 11 28 -11 0 -23 5 -26 10 -5 8 -11 7 -21 -1
-8 -6 -14 -7 -14 -2 0 5 -7 10 -15 10 -8 0 -15 -6 -15 -13 0 -6 -7 -15 -16
-18 -13 -5 -15 -2 -11 14 6 23 -3 32 -23 20z"/>
<path d="M1068 2170 c3 -22 10 -30 24 -30 19 0 19 1 -2 30 -12 17 -23 30 -24
30 -1 0 -1 -13 2 -30z"/>
<path d="M881 2176 c-7 -8 -9 -25 -5 -41 5 -20 9 -23 15 -13 7 10 9 8 10 -7 0
-20 0 -20 8 0 6 13 4 23 -5 28 -20 11 -17 30 2 23 14 -5 15 -4 4 9 -15 18 -15
18 -29 1z"/>
<path d="M2385 2165 c-27 -13 -45 -24 -38 -24 14 -1 103 36 103 44 0 9 -13 5
-65 -20z"/>
<path d="M1724 2166 c-8 -21 12 -44 25 -30 6 5 4 16 -4 28 -13 18 -15 18 -21
2z"/>
<path d="M687 2163 c-3 -5 -8 -24 -12 -43 -3 -19 -9 -43 -11 -52 -3 -10 -1
-18 5 -18 6 0 11 9 11 21 0 11 9 32 19 46 11 13 17 31 14 39 -6 15 -19 19 -26
7z"/>
<path d="M784 2155 c7 -17 10 -30 15 -54 1 -2 7 2 15 8 18 15 29 -10 20 -46
-8 -30 7 -42 42 -35 29 5 32 22 4 29 -15 4 -19 12 -17 32 5 34 -12 61 -38 61
-12 0 -27 6 -34 13 -12 10 -13 8 -7 -8z"/>
<path d="M2449 2162 c-1 -4 -1 -11 0 -16 1 -4 -4 -14 -10 -22 -8 -10 -8 -14 0
-14 6 0 11 5 11 10 0 6 6 10 13 10 8 0 14 7 14 15 0 14 -26 31 -28 17z"/>
<path d="M2194 2125 c-21 -19 -33 -35 -25 -35 15 0 76 59 69 66 -3 2 -22 -12
-44 -31z"/>
<path d="M2070 2142 c0 -5 -10 -14 -22 -21 -19 -9 -19 -11 -3 -6 17 4 16 2 -5
-15 -14 -11 -21 -20 -16 -20 5 0 -3 -11 -19 -24 -18 -16 -23 -26 -15 -31 15
-9 48 22 65 62 8 18 19 33 24 33 6 0 11 7 11 15 0 8 -4 15 -10 15 -5 0 -10 -4
-10 -8z"/>
<path d="M465 2127 c-10 -24 19 -57 36 -40 12 12 3 37 -11 28 -5 -3 -10 3 -13
12 -4 17 -4 17 -12 0z"/>
<path d="M2314 2125 c-4 -8 -12 -15 -20 -15 -8 0 -14 -4 -14 -8 0 -18 13 -20
35 -6 12 8 28 12 36 9 8 -3 28 4 44 15 l30 20 -30 -5 c-16 -2 -41 -7 -54 -11
-17 -5 -22 -4 -17 4 4 7 5 12 1 12 -3 0 -8 -7 -11 -15z"/>
<path d="M1793 2105 c37 -33 57 -32 27 0 -13 14 -31 25 -39 25 -11 -1 -8 -8
12 -25z"/>
<path d="M520 2100 c0 -6 14 -13 30 -16 17 -4 30 -11 30 -16 0 -5 7 -2 16 6
21 22 9 39 -18 23 -16 -9 -22 -9 -25 1 -6 14 -33 16 -33 2z"/>
<path d="M732 2089 c-7 -12 -11 -24 -7 -27 3 -4 10 0 15 8 6 8 10 11 10 5 0
-5 11 -15 24 -21 l24 -11 -20 34 c-23 39 -29 40 -46 12z"/>
<path d="M1385 2081 c-57 -33 -68 -55 -30 -57 14 -1 25 2 25 7 0 4 17 13 37
18 42 12 47 10 113 -59 49 -51 97 -86 106 -77 3 3 -20 36 -50 74 -117 141
-118 141 -201 94z"/>
<path d="M426 2072 c9 -18 20 -30 25 -27 5 4 9 -1 9 -10 0 -12 -5 -15 -16 -11
-9 3 -18 6 -20 6 -2 0 -4 7 -4 15 0 20 -27 8 -33 -16 -4 -16 -1 -18 19 -13 20
5 24 2 24 -15 0 -27 25 -33 130 -27 47 2 118 5 158 5 61 1 72 4 72 19 0 14 2
15 10 2 11 -17 25 -7 17 13 -8 22 -55 18 -72 -6 -15 -21 -15 -21 -15 3 l0 24
-16 -22 c-19 -28 -30 -28 -39 1 -5 16 -8 18 -11 6 -3 -11 -17 -15 -44 -15 -22
0 -40 4 -40 8 0 4 -12 7 -27 7 -21 -1 -23 -3 -9 -6 16 -4 11 -8 -19 -19 -45
-15 -57 -12 -26 8 12 7 21 18 21 25 0 19 -21 27 -31 12 -11 -19 -21 -5 -22 28
0 23 -1 25 -10 12 -10 -15 -12 -15 -29 5 -17 21 -17 20 -2 -12z"/>
<path d="M1748 2075 c-10 -13 -30 -25 -45 -27 -29 -3 -45 -26 -57 -83 l-7 -30
21 33 c11 18 20 39 20 47 0 8 6 15 13 16 6 0 23 2 37 5 23 3 21 1 -13 -27 -21
-18 -44 -44 -52 -60 -24 -45 -17 -45 14 -2 32 44 95 88 111 78 14 -9 12 5 -8
42 l-17 31 -17 -23z"/>
<path d="M2800 2035 c-1 -5 -1 -14 0 -20 1 -5 3 -48 5 -95 2 -47 3 -95 4 -107
1 -20 6 -22 49 -20 46 3 47 4 44 33 -5 38 -9 41 -26 19 -8 -12 -19 -16 -30
-12 -27 11 -13 32 22 35 32 3 32 3 32 63 l0 59 -44 0 c-41 0 -45 2 -49 28 -2
15 -5 23 -7 17z m70 -107 c0 -10 3 -9 10 2 6 9 10 10 10 3 0 -6 -5 -15 -11
-18 -6 -4 -8 -13 -5 -21 4 -10 -2 -14 -20 -14 -17 0 -23 4 -18 12 5 7 7 28 5
47 -3 31 -1 33 13 18 9 -8 16 -22 16 -29z"/>
<path d="M951 2019 c-13 -5 -32 -7 -42 -4 -12 4 -19 1 -19 -7 0 -17 65 -17 82
0 17 17 7 21 -21 11z"/>
<path d="M2690 1990 c0 -11 5 -20 11 -20 6 0 9 6 6 14 -4 10 3 16 21 19 24 4
24 4 -5 6 -27 1 -33 -3 -33 -19z"/>
<path d="M2333 1987 c-123 -6 -223 -14 -223 -18 0 -5 10 -10 23 -10 16 -1 18
-2 5 -6 -24 -6 -23 -23 2 -23 10 0 23 7 28 17 6 10 16 14 27 9 10 -3 24 -1 31
5 11 9 15 7 20 -5 9 -22 54 -21 54 2 0 12 2 14 8 4 7 -10 15 -10 36 -2 36 13
35 13 33 -12 -2 -21 11 -39 14 -20 2 11 42 37 59 37 8 0 21 -4 28 -9 8 -5 12
-4 12 6 0 9 12 14 36 15 20 1 41 6 47 12 8 8 7 11 -3 9 -8 -1 -115 -6 -237
-11z"/>
<path d="M2742 1968 c-2 -12 -16 -18 -59 -23 -68 -8 -113 -25 -113 -42 0 -13
17 -10 57 9 12 6 33 8 47 6 14 -3 26 -1 26 3 0 5 7 9 15 9 17 0 18 -4 9 -38
-6 -21 -11 -22 -83 -21 -87 2 -151 -8 -130 -21 7 -5 20 -5 28 -1 9 4 33 9 53
10 40 2 50 -13 45 -71 -1 -14 3 -27 8 -27 6 -1 10 5 10 12 0 6 9 17 20 24 11
7 14 12 8 13 -7 0 -13 8 -13 18 0 14 -2 15 -10 2 -8 -12 -10 -11 -10 8 0 18 5
22 31 22 29 0 31 -2 27 -30 -3 -16 -2 -30 1 -31 3 0 14 -2 24 -4 9 -2 17 3 17
11 0 8 -6 14 -12 14 -10 0 -10 2 0 9 9 5 12 29 9 82 -1 41 -4 66 -5 57z"/>
<path d="M1080 1962 c0 -5 11 -22 24 -37 14 -16 35 -48 47 -72 40 -78 55 -64
18 17 -11 24 -28 53 -37 63 -21 24 -52 41 -52 29z"/>
<path d="M2013 1951 c1 -23 32 -29 40 -8 4 10 6 10 6 0 1 -7 13 -13 27 -13 19
0 25 5 22 18 -2 13 -15 18 -50 20 -42 3 -47 1 -45 -17z"/>
<path d="M2515 1949 c-4 -5 7 -9 24 -9 39 0 49 17 11 18 -16 0 -32 -4 -35 -9z"/>
<path d="M892 1917 c-13 -14 -22 -35 -21 -53 l0 -29 10 25 c6 13 17 32 26 42
24 27 10 42 -15 15z"/>
<path d="M630 1903 c0 -27 30 -31 54 -8 9 9 17 11 21 5 9 -14 45 -12 45 3 0 8
2 9 8 1 11 -17 92 -15 110 2 8 8 11 18 7 22 -3 4 -11 -1 -16 -11 -12 -21 -39
-22 -39 -1 0 13 -14 15 -95 12 -91 -3 -95 -4 -95 -25z"/>
<path d="M2200 1922 c-17 -8 -27 -52 -11 -52 25 0 41 14 41 36 0 25 -5 27 -30
16z"/>
<path d="M2250 1906 c0 -15 7 -26 20 -29 13 -3 20 0 20 9 0 8 -7 14 -16 14 -8
0 -13 4 -9 10 3 5 13 6 22 3 11 -4 14 -3 9 5 -4 7 -16 12 -27 12 -13 0 -19 -7
-19 -24z"/>
<path d="M2312 1918 c7 -20 48 -23 48 -4 0 11 -9 16 -26 16 -16 0 -24 -5 -22
-12z"/>
<path d="M2458 1916 c-24 -18 -22 -34 4 -32 14 1 22 9 24 24 4 25 -3 27 -28 8z"/>
<path d="M298 1913 l-48 -4 0 -110 c0 -102 1 -109 20 -109 13 0 20 7 20 20 0
11 -4 20 -9 20 -5 0 -6 12 -2 28 6 19 3 30 -8 39 -14 11 -14 12 2 13 11 0 17
8 17 25 0 17 -6 25 -17 26 -14 0 -13 2 5 9 12 5 22 15 22 22 0 9 3 9 8 2 14
-21 41 -24 52 -4 13 25 13 30 -2 28 -7 -1 -34 -3 -60 -5z"/>
<path d="M458 1875 c4 -48 15 -57 32 -25 11 21 40 28 40 10 0 -5 9 -10 20 -10
15 0 20 -7 20 -25 0 -18 -5 -25 -20 -25 -31 0 -28 -50 3 -51 l22 0 -22 -11
c-30 -15 -29 -28 2 -28 l25 0 0 105 0 105 -63 0 -62 0 3 -45z m102 15 c10 -19
8 -19 -34 -14 -38 6 -45 4 -49 -12 -4 -17 -5 -17 -6 2 -1 27 17 44 51 44 17 0
31 -7 38 -20z"/>
<path d="M2020 1906 c0 -22 11 -46 21 -46 5 0 7 10 5 23 -3 12 -5 25 -5 30 -2
13 -21 7 -21 -7z"/>
<path d="M2067 1913 c-4 -3 -7 -17 -7 -30 0 -17 6 -23 21 -23 16 0 19 4 14 23
-5 17 -4 19 4 7 9 -12 11 -11 11 8 0 21 -27 31 -43 15z"/>
<path d="M2137 1902 c-24 -26 -21 -42 8 -42 21 0 25 5 25 30 0 34 -10 38 -33
12z"/>
<path d="M1940 1867 c13 -30 18 -55 14 -76 -6 -29 -8 -30 -20 -14 -11 16 -12
13 -5 -19 9 -38 4 -153 -8 -203 -4 -16 -5 -94 -3 -172 4 -127 6 -141 21 -133
14 7 57 22 135 47 14 4 17 3 11 -6 -6 -10 -3 -11 14 -2 24 13 29 26 6 17 -8
-3 -15 -2 -15 3 0 12 -68 -3 -112 -24 -21 -10 -40 -16 -44 -13 -10 10 16 89
32 95 7 3 14 12 14 19 0 12 -4 12 -25 -2 l-25 -16 0 64 c0 35 7 90 15 121 17
65 19 91 7 83 -5 -3 -3 18 5 47 7 29 9 53 4 55 -4 1 0 19 10 40 11 20 18 43
18 52 -1 9 -3 8 -7 -5 -4 -15 -9 -8 -21 29 -9 27 -22 51 -28 54 -8 2 -6 -12 7
-41z"/>
<path d="M1061 1890 c0 -8 6 -37 13 -65 8 -27 15 -43 15 -35 0 8 -6 38 -13 65
-8 28 -15 43 -15 35z"/>
<path d="M1618 1893 c-8 -15 9 -234 19 -243 3 -3 2 48 -2 114 -5 91 -4 116 6
111 7 -5 10 -3 7 5 -5 16 -24 24 -30 13z"/>
<path d="M1095 1850 c10 -57 16 -71 26 -65 5 4 9 -2 10 -12 2 -47 7 -88 9 -93
2 -3 4 -30 4 -62 1 -63 1 -63 36 -72 l25 -7 -21 18 c-25 22 -37 50 -23 58 5 4
7 11 4 16 -4 5 2 9 12 9 13 0 15 2 5 9 -10 6 -10 11 3 21 36 30 67 130 40 130
-8 0 -14 -8 -13 -17 3 -42 -3 -73 -18 -87 -18 -18 -39 -22 -28 -4 4 7 3 8 -4
4 -11 -6 -17 6 -13 27 1 4 -4 28 -10 53 -8 31 -14 41 -20 32 -6 -9 -9 -3 -9
17 0 17 -5 37 -11 45 -7 11 -9 6 -4 -20z"/>
<path d="M638 1845 c3 -18 11 -25 28 -25 19 0 24 5 24 25 0 21 -5 25 -29 25
-25 0 -28 -3 -23 -25z"/>
<path d="M704 1854 c3 -9 6 -20 6 -25 0 -5 4 -9 10 -9 5 0 9 11 8 25 -1 14 -9
25 -16 25 -9 0 -12 -6 -8 -16z"/>
<path d="M37 1853 c38 -4 43 -7 43 -28 0 -21 -5 -24 -42 -28 l-43 -4 43 -1 43
-2 -1 -57 c-3 -117 0 -203 8 -203 4 0 6 16 4 35 l-4 34 68 4 69 3 -67 2 -68 2
0 89 0 90 33 4 32 4 -32 1 c-28 2 -33 6 -33 26 0 15 7 26 18 29 9 3 -12 4 -48
4 -44 0 -51 -2 -23 -4z"/>
<path d="M312 1838 c5 -34 38 -37 38 -4 0 20 -5 26 -21 26 -15 0 -20 -5 -17
-22z"/>
<path d="M2203 1853 c-18 -3 -23 -11 -23 -34 0 -16 4 -29 9 -29 5 0 8 11 6 25
-2 19 2 25 16 25 11 0 19 5 19 10 0 6 -1 9 -2 9 -2 -1 -13 -4 -25 -6z"/>
<path d="M2323 1853 c-7 -2 -13 -16 -13 -29 0 -17 6 -24 19 -24 11 0 23 5 27
11 4 8 -1 9 -17 5 l-24 -6 23 11 c38 20 25 49 -15 32z"/>
<path d="M2378 1830 c2 -16 9 -30 14 -30 5 0 7 10 4 23 l-6 22 11 -22 c14 -26
26 -30 26 -8 0 8 -5 15 -10 15 -5 0 -4 7 3 15 11 13 8 15 -17 15 -27 0 -29 -2
-25 -30z"/>
<path d="M2030 1826 c0 -14 5 -28 10 -31 6 -4 10 7 10 24 0 17 -4 31 -10 31
-5 0 -10 -11 -10 -24z"/>
<path d="M2060 1840 c0 -5 8 -7 18 -4 16 5 16 5 0 -9 -25 -20 -22 -37 7 -37
21 0 25 5 25 30 0 25 -4 30 -25 30 -14 0 -25 -4 -25 -10z"/>
<path d="M2120 1819 c0 -26 3 -30 22 -27 15 2 23 11 25 31 3 23 0 27 -22 27
-21 0 -25 -5 -25 -31z"/>
<path d="M2452 1832 c-23 -7 -13 -32 13 -32 14 0 25 3 25 6 0 12 -26 30 -38
26z"/>
<path d="M1021 1823 c-1 -16 34 -162 63 -258 35 -114 32 -63 -3 64 -48 172
-59 207 -60 194z"/>
<path d="M636 1750 c-4 -34 -2 -314 3 -623 15 -795 22 -987 33 -987 6 0 8 7 4
15 -3 10 1 15 12 15 9 0 23 9 30 20 14 23 0 27 -21 5 -13 -13 -16 -13 -21 1
-8 20 -8 78 0 98 3 9 12 16 19 16 7 0 16 8 19 17 6 15 8 15 16 3 5 -8 11 -12
14 -9 3 2 1 11 -4 19 -8 12 -13 13 -30 3 -11 -7 -24 -13 -29 -13 -15 0 -22 49
-9 69 9 16 9 23 -3 37 -9 11 -10 19 -3 21 6 2 9 26 6 63 -4 53 -2 59 12 54 9
-3 16 -2 16 4 0 5 -8 12 -18 14 -10 3 -18 16 -20 32 -3 36 25 46 49 18 20 -25
34 -29 25 -7 -6 18 -5 18 28 5 17 -6 26 -6 26 0 0 6 -7 10 -15 10 -8 0 -15 5
-15 11 0 7 -9 9 -23 6 -12 -4 -29 -2 -37 3 -13 9 -13 11 0 20 9 6 10 10 3 10
-7 0 -16 -7 -21 -16 -15 -26 -23 22 -21 128 0 51 0 98 -1 103 -1 6 -2 31 -1
56 1 38 5 48 21 52 11 3 20 10 20 16 0 15 -17 14 -27 -1 -5 -8 -10 14 -13 52
-4 40 -2 68 4 72 7 5 7 11 -2 20 -6 6 -12 27 -12 44 0 29 3 33 28 31 15 -1 30
-6 33 -10 3 -5 9 -2 12 7 6 16 -11 21 -55 17 -15 -2 -18 6 -18 43 0 47 17 63
27 26 4 -14 13 -20 32 -19 15 1 19 3 10 6 -11 3 -15 11 -12 24 5 16 0 19 -28
19 -37 0 -35 9 4 12 14 1 23 6 20 11 -3 5 -16 6 -29 3 -24 -6 -24 -5 -24 66
-1 40 -3 115 -7 166 l-5 92 26 0 c32 0 35 17 4 23 l-23 4 23 2 c18 1 22 7 22
31 0 25 -4 30 -24 30 -21 0 -24 -5 -30 -60z"/>
<path d="M760 1785 c0 -14 4 -25 9 -25 6 0 8 9 6 21 -3 15 0 19 10 15 8 -3 15
-1 15 4 0 6 -9 10 -20 10 -15 0 -20 -7 -20 -25z"/>
<path d="M815 1799 c4 -6 13 -8 21 -5 8 3 14 -1 14 -10 0 -8 -4 -13 -9 -9 -5
3 -12 1 -16 -5 -3 -5 3 -10 13 -10 13 0 21 9 24 25 5 22 2 25 -24 25 -18 0
-27 -4 -23 -11z"/>
<path d="M321 1791 c-11 -7 -11 -9 0 -14 12 -5 12 -7 1 -15 -11 -7 -10 -10 3
-16 25 -9 25 -9 25 24 0 31 -6 36 -29 21z"/>
<path d="M464 1759 c8 -53 10 -55 38 -41 l23 11 -25 0 c-19 1 -22 3 -10 10 8
6 18 7 23 4 5 -3 7 8 5 23 -2 24 -9 30 -32 32 -29 4 -29 3 -22 -39z"/>
<path d="M2595 1789 c-11 -4 -35 -8 -53 -8 -24 -1 -35 -7 -42 -23 -7 -18 -9
-19 -9 -5 -1 18 -35 24 -46 7 -3 -5 1 -10 9 -10 8 0 19 -7 24 -15 5 -10 15
-13 25 -9 9 3 14 10 11 15 -3 5 7 4 22 -1 23 -9 25 -8 15 4 -9 11 -8 15 4 20
9 3 15 0 15 -9 0 -8 5 -15 10 -15 6 0 10 5 10 11 0 6 6 9 14 6 8 -3 16 2 19
14 6 23 -2 29 -28 18z"/>
<path d="M2370 1775 c0 -18 1 -18 36 0 l29 15 -32 0 c-23 0 -33 -5 -33 -15z"/>
<path d="M2043 1760 c2 -21 7 -25 32 -25 23 0 31 5 33 23 3 18 -1 22 -22 22
-20 0 -26 -5 -27 -22 -1 -22 -1 -22 -10 2 l-8 25 2 -25z"/>
<path d="M2120 1755 c0 -23 2 -24 25 -13 14 6 25 17 25 25 0 7 -11 13 -25 13
-20 0 -25 -5 -25 -25z"/>
<path d="M1090 1730 c0 -43 29 -165 37 -156 2 2 0 21 -6 42 -6 22 -13 64 -17
94 -8 68 -14 77 -14 20z"/>
<path d="M2670 1745 c0 -22 4 -25 34 -25 19 0 38 5 41 10 3 6 1 10 -4 10 -6 0
-11 7 -11 15 0 19 -28 8 -33 -13 -3 -12 -5 -10 -6 6 -1 30 -21 28 -21 -3z"/>
<path d="M2988 1653 c5 -181 8 -199 10 -50 1 81 -1 147 -5 147 -5 0 -7 -44 -5
-97z"/>
<path d="M700 1729 c0 -6 20 -9 50 -7 65 4 65 18 0 18 -28 0 -50 -5 -50 -11z"/>
<path d="M318 1723 c10 -4 10 -8 1 -19 -9 -11 -7 -14 10 -14 14 0 21 6 21 20
0 14 -6 20 -22 19 -13 0 -17 -3 -10 -6z"/>
<path d="M2252 1721 c-10 -6 -11 -13 -1 -34 18 -39 37 -34 36 8 -1 35 -10 42
-35 26z"/>
<path d="M2382 1718 c-7 -7 -12 -22 -12 -33 0 -18 5 -21 30 -17 27 4 45 32 20
32 -5 0 -7 7 -4 15 7 18 -17 20 -34 3z"/>
<path d="M2628 1707 c-3 -13 -1 -32 3 -43 11 -29 10 -122 -1 -126 -7 -2 -7
-14 1 -36 13 -38 27 -35 21 6 -2 17 2 35 10 42 9 8 12 30 10 67 l-4 55 46 -3
c32 -3 46 0 46 8 0 9 -17 13 -55 13 -48 0 -55 2 -55 20 0 28 -17 25 -22 -3z"/>
<path d="M971 1698 c-1 -38 45 -171 80 -232 31 -55 39 -48 13 12 -13 30 -66
172 -87 232 -3 8 -6 3 -6 -12z"/>
<path d="M2060 1703 c1 -29 35 -161 44 -170 13 -13 -1 96 -14 112 -9 11 -9 15
-1 15 6 0 11 9 11 21 0 11 -4 17 -10 14 -6 -3 -7 1 -4 9 4 11 0 16 -10 16 -9
0 -16 -8 -16 -17z"/>
<path d="M2120 1712 c0 -6 5 -14 10 -17 6 -3 10 -11 10 -16 0 -6 -4 -7 -10 -4
-5 3 -10 1 -10 -4 0 -6 11 -11 25 -11 21 0 25 5 25 30 0 17 -4 30 -10 30 -5 0
-10 -5 -10 -11 0 -8 -5 -8 -15 1 -9 8 -15 9 -15 2z"/>
<path d="M2180 1690 c0 -25 4 -30 25 -30 21 0 25 5 25 30 0 25 -4 30 -25 30
-21 0 -25 -5 -25 -30z"/>
<path d="M2312 1690 c-2 -26 1 -30 23 -30 31 0 35 34 6 50 -27 14 -26 14 -29
-20z"/>
<path d="M580 1625 c0 -73 -1 -75 -25 -75 -23 0 -24 4 -28 63 l-3 62 -2 -62
c-2 -59 -3 -62 -29 -65 l-28 -3 6 -65 6 -65 1 63 2 62 50 0 50 0 0 -76 c0 -44
-4 -73 -9 -69 -6 3 -9 -4 -8 -15 1 -11 5 -20 9 -20 4 0 9 -24 11 -52 2 -29 4
47 5 170 1 122 0 222 -3 222 -3 0 -5 -34 -5 -75z"/>
<path d="M2440 1681 c0 -10 9 -12 38 -7 20 3 59 6 86 6 27 0 46 3 42 8 -4 4
-43 7 -87 7 -61 1 -79 -3 -79 -14z"/>
<path d="M2810 1680 c0 -5 12 -10 28 -10 15 0 37 -3 50 -6 15 -5 22 -2 22 8 0
10 -14 15 -50 17 -30 1 -50 -2 -50 -9z"/>
<path d="M254 1521 c0 -91 5 -162 11 -168 6 -5 21 -6 35 -2 24 7 24 7 -5 9
-18 1 -23 4 -12 7 10 3 17 14 17 29 0 16 -6 24 -17 24 -17 1 -17 1 0 14 14 11
16 19 7 40 -5 14 -6 26 -2 26 4 0 8 9 8 19 0 11 -4 18 -7 15 -4 -2 -10 0 -14
6 -3 5 0 10 8 10 17 0 11 50 -7 62 -8 5 -7 8 2 8 18 0 15 47 -4 54 -9 3 -17 6
-19 6 -1 0 -2 -71 -1 -159z"/>
<path d="M323 1673 c-7 -2 -13 -9 -13 -14 0 -6 6 -7 13 -3 10 6 10 4 0 -7 -7
-7 -13 -18 -13 -23 0 -6 5 -4 10 4 6 10 10 11 10 3 0 -7 5 -13 10 -13 6 0 10
14 10 30 0 30 -4 33 -27 23z"/>
<path d="M1800 1635 c6 -15 14 -34 19 -44 13 -24 51 -168 57 -216 7 -51 14
-58 15 -14 4 100 -15 183 -57 251 -30 47 -48 59 -34 23z"/>
<path d="M2558 1593 c2 -67 12 -103 12 -45 0 27 4 31 33 35 l32 4 -32 1 c-31
2 -33 5 -33 37 0 19 -3 35 -7 35 -5 0 -7 -30 -5 -67z"/>
<path d="M1268 1630 c12 -11 27 -20 33 -20 7 0 5 8 -6 20 -10 11 -25 20 -33
20 -12 0 -11 -5 6 -20z"/>
<path d="M2122 1616 c-2 -31 0 -33 23 -28 18 3 25 11 25 28 0 28 -8 30 -26 7
-12 -15 -13 -16 -8 -2 3 10 1 19 -3 22 -5 3 -10 -9 -11 -27z"/>
<path d="M2180 1618 c0 -23 4 -28 25 -28 21 0 25 5 25 30 0 26 -3 29 -25 28
-20 -2 -25 -8 -25 -30z"/>
<path d="M2240 1631 c0 -17 3 -18 25 -8 32 15 32 27 0 27 -18 0 -25 -5 -25
-19z"/>
<path d="M2310 1619 c0 -20 4 -29 13 -26 6 2 11 14 9 27 -1 16 2 21 13 16 8
-3 15 -1 15 4 0 6 -11 10 -25 10 -21 0 -25 -5 -25 -31z"/>
<path d="M2380 1636 c0 -7 9 -21 20 -31 18 -16 20 -16 35 -1 14 13 14 18 3 29
-18 17 -58 20 -58 3z"/>
<path d="M1711 1612 c-1 -15 29 -72 62 -118 12 -18 27 -40 33 -50 7 -11 14
-17 17 -14 7 7 -23 72 -38 82 -5 4 -6 8 -1 8 4 0 -5 15 -20 33 -16 19 -34 42
-41 53 -7 11 -12 14 -12 6z"/>
<path d="M28 1540 c2 -39 7 -68 10 -66 9 5 2 136 -6 136 -4 0 -6 -32 -4 -70z"/>
<path d="M323 1603 c20 -5 19 -40 -1 -35 -7 1 -12 -2 -12 -8 0 -5 14 -10 30
-10 27 0 30 3 29 33 -1 30 -1 31 -9 7 -8 -24 -8 -24 -9 -2 -1 16 -7 22 -23 21
-18 -1 -19 -2 -5 -6z"/>
<path d="M1235 1583 c40 -21 42 -23 25 -33 -11 -7 -7 -10 13 -16 35 -8 113 20
127 47 9 15 8 17 -7 12 -10 -4 -20 -10 -23 -14 -9 -11 -90 -22 -90 -11 0 6
-14 15 -31 21 -44 15 -49 13 -14 -6z"/>
<path d="M193 1530 c0 -36 2 -50 4 -32 2 17 2 47 0 65 -2 17 -4 3 -4 -33z"/>
<path d="M1636 1581 c-4 -5 -2 -12 4 -16 6 -4 8 -10 5 -15 -3 -5 -1 -28 4 -52
6 -24 16 -81 22 -128 7 -47 18 -99 26 -117 7 -18 13 -45 13 -61 0 -21 5 -28
20 -28 11 0 20 6 20 13 0 7 -6 10 -13 7 -14 -5 -37 96 -66 288 -16 106 -23
128 -35 109z"/>
<path d="M2434 1583 c-8 -3 -8 -13 0 -38 9 -28 16 -35 36 -34 23 2 24 2 3 6
-13 2 -23 9 -23 14 0 6 9 7 21 4 15 -5 19 -4 15 4 -4 6 -14 11 -23 11 -9 0
-13 6 -10 15 7 16 -2 24 -19 18z"/>
<path d="M2820 1564 c0 -21 4 -25 20 -21 13 3 20 0 20 -9 0 -8 -7 -14 -16 -12
-10 2 -19 -4 -21 -12 -4 -12 -3 -12 5 -2 7 11 11 8 16 -13 9 -34 -6 -59 -15
-25 -4 16 -7 -1 -8 -47 -1 -41 4 -75 10 -78 13 -9 19 -2 24 22 2 10 4 20 5 23
1 3 5 -5 10 -17 5 -13 15 -21 22 -19 7 1 10 1 6 -1 -4 -2 -4 -11 -2 -18 9 -23
-5 -38 -22 -24 -8 6 -17 9 -21 6 -3 -4 -12 -2 -20 4 -15 13 -17 1 -7 -51 5
-22 9 -28 15 -18 12 18 45 -4 41 -27 -2 -11 1 -14 8 -10 9 5 10 1 5 -14 -5
-17 -2 -21 15 -21 17 0 19 4 14 27 -4 15 -17 36 -28 46 l-21 18 23 -6 c21 -6
22 -4 22 54 0 54 -2 61 -20 61 -12 0 -20 7 -20 16 0 10 6 14 15 10 8 -3 15 -1
15 4 0 14 -24 12 -38 -2 -21 -21 -27 20 -6 44 11 12 13 18 7 14 -9 -5 -13 2
-13 23 0 33 34 63 43 38 4 -8 6 -7 7 3 1 8 3 25 4 38 2 20 -1 22 -46 22 -45 0
-48 -2 -48 -26z"/>
<path d="M846 1558 c-3 -13 -5 -48 -4 -78 1 -52 1 -51 8 20 8 79 7 96 -4 58z"/>
<path d="M1394 1539 c-10 -12 -33 -28 -51 -35 -59 -25 -52 -50 9 -34 28 8 38
18 51 50 18 46 17 48 -9 19z"/>
<path d="M1997 1554 c-4 -4 -7 -19 -7 -34 0 -14 -7 -35 -15 -46 -8 -10 -15
-26 -15 -34 0 -22 25 18 39 63 13 38 12 64 -2 51z"/>
<path d="M1130 1511 c0 -23 -4 -40 -9 -37 -5 3 -9 -42 -8 -104 0 -98 2 -110
18 -110 10 0 21 5 24 10 3 6 2 10 -3 10 -5 0 -14 11 -20 25 -8 18 -8 25 -1 25
7 0 9 12 6 33 -3 17 -2 41 3 52 5 11 9 14 11 8 1 -7 3 -17 4 -23 1 -5 3 -14 4
-19 1 -12 104 -121 114 -121 17 0 3 22 -52 83 -58 64 -66 81 -76 161 -6 54
-15 58 -15 7z"/>
<path d="M2505 1540 c-3 -5 -5 -25 -3 -45 2 -31 5 -35 31 -35 28 0 28 0 10 24
-10 13 -22 22 -27 19 -4 -3 0 6 9 21 15 23 15 26 2 26 -9 0 -18 -4 -22 -10z"/>
<path d="M313 1518 c2 -26 57 -25 57 0 0 13 -8 18 -29 17 -22 0 -29 -5 -28
-17z"/>
<path d="M2730 1529 c-24 -7 -24 -7 -2 -8 12 -1 22 -7 22 -15 0 -9 -7 -12 -19
-9 -16 4 -19 1 -14 -16 3 -12 13 -21 22 -22 11 0 12 -2 3 -6 -9 -4 -10 -9 -2
-18 8 -9 6 -14 -6 -19 -9 -3 -20 -4 -25 0 -5 3 -9 0 -9 -5 0 -6 12 -12 28 -12
l27 -1 -30 -8 c-20 -5 -24 -8 -10 -9 17 -1 18 -3 5 -12 -11 -8 -9 -9 10 -3 14
3 26 8 28 9 2 1 2 38 0 82 -3 79 -3 79 -28 72z"/>
<path d="M142 1478 c-1 -31 -7 -48 -14 -48 -9 0 -10 -3 -2 -8 6 -4 14 -14 17
-22 4 -12 6 -12 6 2 1 11 12 18 34 21 l32 4 -32 1 c-31 2 -32 4 -36 50 l-3 47
-2 -47z"/>
<path d="M2120 1483 c0 -57 10 -83 31 -83 27 0 24 36 -3 45 l-23 8 23 4 c32 6
28 56 -5 61 -20 3 -23 -1 -23 -35z"/>
<path d="M705 1499 c-49 -6 -49 -6 18 -7 65 -2 85 2 50 9 -10 3 -40 1 -68 -2z"/>
<path d="M1205 1458 c28 -29 53 -54 57 -56 4 -2 22 -17 40 -34 18 -16 49 -44
68 -62 53 -48 103 -83 125 -88 11 -2 19 -10 17 -16 -1 -7 5 -12 13 -12 8 0 15
3 15 8 0 10 -49 62 -58 62 -4 0 -48 39 -97 86 -129 124 -280 218 -180 112z"/>
<path d="M2330 1501 c0 -7 -4 -9 -10 -6 -5 3 -10 -3 -10 -14 0 -16 6 -21 25
-21 28 0 33 21 10 40 -11 9 -15 9 -15 1z"/>
<path d="M2893 1502 c-14 -9 -12 -60 3 -66 7 -3 9 5 6 20 -2 14 0 24 7 24 6 0
11 7 11 15 0 16 -9 19 -27 7z"/>
<path d="M978 1458 c9 -24 19 -44 23 -46 4 -2 4 -12 1 -24 -3 -14 -1 -19 6
-15 6 4 15 -5 20 -20 6 -16 11 -21 11 -12 1 19 -56 146 -69 154 -5 3 -1 -14 8
-37z"/>
<path d="M2180 1481 c0 -13 7 -18 25 -18 18 0 25 5 25 18 0 14 -7 19 -25 19
-18 0 -25 -5 -25 -19z"/>
<path d="M2374 1483 c3 -21 33 -30 49 -14 8 8 6 11 -8 11 -17 0 -18 2 -5 10
12 8 9 10 -12 10 -19 0 -26 -5 -24 -17z"/>
<path d="M347 1483 c-13 -12 -7 -43 8 -43 9 0 15 9 15 25 0 24 -10 32 -23 18z"/>
<path d="M1736 1470 c3 -14 8 -40 9 -57 4 -49 98 -223 113 -209 2 3 -1 12 -8
21 -7 9 -10 18 -7 21 3 4 0 12 -7 20 -7 7 -20 34 -29 61 -18 54 -81 181 -71
143z"/>
<path d="M2246 1482 c-3 -3 -3 -9 0 -13 7 -12 54 -12 54 0 0 10 -47 21 -54 13z"/>
<path d="M2440 1481 c0 -5 11 -11 25 -13 17 -4 25 -1 25 8 0 8 -11 14 -25 14
-14 0 -25 -4 -25 -9z"/>
<path d="M2655 1449 c-16 -5 -43 -6 -60 -3 -29 6 -29 5 -10 -11 17 -14 17 -16
3 -11 -12 3 -18 0 -18 -10 0 -10 7 -14 23 -12 12 2 21 9 20 16 -4 16 12 15 29
-1 22 -23 43 -16 45 15 1 15 1 28 0 27 -1 0 -15 -5 -32 -10z"/>
<path d="M2198 1442 c-10 -2 -18 -7 -18 -12 0 -11 43 -21 53 -11 11 11 -14 28
-35 23z"/>
<path d="M2444 1423 c3 -8 6 -17 6 -19 0 -2 9 -4 20 -4 29 0 25 27 -6 33 -19
3 -24 1 -20 -10z"/>
<path d="M88 1370 c3 -55 2 -60 -16 -60 -11 0 -23 8 -25 18 -4 15 -5 15 -6 0
0 -9 -11 -19 -23 -21 l-23 -4 23 -2 c31 -2 31 -48 -1 -54 -12 -2 5 -4 38 -4
33 0 45 2 28 4 -27 4 -33 9 -33 29 0 17 5 24 20 24 11 0 20 -6 20 -12 0 -10 2
-10 8 -1 4 6 25 13 47 16 l40 4 -43 1 -44 2 4 60 c2 36 -1 60 -7 60 -6 0 -9
-24 -7 -60z"/>
<path d="M331 1403 c10 -11 10 -14 2 -9 -7 4 -13 2 -13 -3 0 -19 35 -12 48 9
11 18 10 20 -19 20 -28 0 -30 -2 -18 -17z"/>
<path d="M520 1382 c-8 -3 -18 -10 -22 -16 -5 -7 -8 -7 -8 2 0 10 -3 10 -15
-2 -8 -8 -15 -17 -15 -20 0 -8 43 -1 64 11 21 12 18 32 -4 25z"/>
<path d="M2268 1383 c-11 -3 -18 -14 -18 -29 0 -19 5 -24 25 -24 14 0 25 5 25
10 0 6 -6 10 -14 10 -8 0 -18 5 -22 12 -5 8 0 9 14 6 15 -4 22 -2 22 8 0 14
-3 15 -32 7z"/>
<path d="M2313 1376 c2 -5 13 -13 25 -17 17 -7 22 -5 22 9 0 11 -8 17 -25 17
-14 0 -24 -4 -22 -9z"/>
<path d="M2442 1359 c1 -23 4 -27 14 -18 7 6 18 8 24 4 5 -3 10 0 10 7 0 7
-11 18 -24 24 -23 11 -25 10 -24 -17z"/>
<path d="M2510 1365 c0 -26 29 -42 42 -23 12 19 10 22 -17 35 -23 10 -25 9
-25 -12z"/>
<path d="M376 1364 c-18 -13 -16 -14 25 -13 24 0 37 3 29 6 -8 3 -20 9 -25 14
-6 4 -19 1 -29 -7z"/>
<path d="M2069 1360 l-24 -19 38 11 c20 6 37 15 37 20 0 14 -27 9 -51 -12z"/>
<path d="M2144 1364 c3 -9 6 -20 6 -25 0 -5 7 -9 16 -9 11 0 14 5 10 16 -3 9
-6 20 -6 25 0 5 -7 9 -16 9 -11 0 -14 -5 -10 -16z"/>
<path d="M2190 1354 c0 -25 15 -30 39 -15 17 11 8 27 -19 34 -16 4 -20 0 -20
-19z"/>
<path d="M138 1343 c4 -20 7 -23 10 -10 2 9 11 18 20 19 9 0 22 2 29 2 6 1 15
5 19 9 4 4 -13 7 -38 7 -44 0 -45 -1 -40 -27z"/>
<path d="M1992 1350 c-18 -11 -32 -22 -32 -24 0 -7 35 5 54 20 31 22 13 25
-22 4z"/>
<path d="M2583 1355 c-18 -19 1 -29 28 -14 17 9 19 13 8 20 -18 11 -22 11 -36
-6z"/>
<path d="M2750 1349 c0 -5 -4 -7 -10 -4 -5 3 -10 2 -10 -4 0 -5 6 -12 13 -14
6 -3 0 -6 -15 -6 -24 -1 -26 -4 -19 -23 5 -13 16 -22 25 -22 9 1 16 -1 17 -5
0 -3 2 -14 4 -25 3 -14 -1 -17 -21 -13 -19 3 -24 0 -24 -15 0 -15 5 -18 21
-13 15 5 19 4 15 -4 -4 -6 -2 -11 4 -11 6 0 9 -4 5 -9 -3 -6 -14 -8 -25 -6
-12 2 -18 0 -15 -6 4 -5 10 -7 14 -4 5 2 13 -7 20 -21 15 -33 14 -34 -9 -34
-24 0 -22 -22 3 -32 24 -10 21 -46 -5 -69 l-23 -18 30 -1 c28 -1 29 -1 11 -15
-10 -8 -23 -12 -27 -9 -5 3 -9 -4 -9 -15 0 -15 6 -21 21 -21 19 0 21 -5 17
-39 -2 -22 0 -37 4 -35 5 3 8 -4 8 -14 0 -12 -9 -22 -22 -26 l-23 -6 26 -22
c21 -19 24 -28 18 -50 -7 -27 -3 -38 13 -38 7 0 2 295 -7 395 -2 22 -4 77 -4
123 -1 60 -4 81 -13 76 -7 -5 -8 -3 -2 7 13 21 16 59 4 59 -5 0 -10 -5 -10
-11z"/>
<path d="M397 1333 c-4 -3 -7 -20 -7 -36 0 -25 2 -28 15 -17 11 9 12 15 5 20
-6 4 -8 14 -4 23 6 18 2 22 -9 10z"/>
<path d="M841 1264 c0 -55 3 -72 9 -58 10 24 7 120 -3 131 -4 3 -7 -29 -6 -73z"/>
<path d="M2155 1290 c0 -17 5 -30 13 -30 7 0 12 13 12 30 0 17 -5 30 -12 30
-8 0 -13 -13 -13 -30z"/>
<path d="M2191 1293 c-1 -29 2 -33 25 -33 14 0 23 4 19 10 -4 6 -10 8 -15 5
-4 -3 -13 7 -18 22 l-10 28 -1 -32z"/>
<path d="M2250 1309 c0 -6 9 -8 22 -3 20 6 21 5 9 -10 -12 -14 -12 -16 3 -10
25 10 19 34 -9 34 -14 0 -25 -5 -25 -11z"/>
<path d="M2380 1290 c0 -30 14 -41 23 -17 4 9 8 8 16 -3 9 -12 11 -11 11 8 0
13 -6 22 -16 22 -8 0 -12 5 -9 10 3 6 -1 10 -9 10 -11 0 -16 -9 -16 -30z"/>
<path d="M1180 1285 c0 -24 39 -78 40 -55 0 8 -9 29 -20 45 -16 25 -20 27 -20
10z"/>
<path d="M2326 1275 c-4 -11 1 -15 19 -15 18 0 23 4 19 15 -4 8 -12 15 -19 15
-7 0 -15 -7 -19 -15z"/>
<path d="M2640 1275 c0 -9 10 -15 26 -15 23 0 24 2 10 15 -8 8 -19 15 -25 15
-6 0 -11 -7 -11 -15z"/>
<path d="M2065 1260 c-11 -4 -23 -6 -27 -3 -4 2 -33 -5 -65 -16 l-58 -20 -1
-43 c0 -25 7 -55 17 -72 13 -22 17 -41 12 -73 -5 -39 -4 -43 16 -43 24 0 25 3
9 30 -11 17 -10 22 1 29 8 6 11 16 7 27 -8 21 9 34 47 34 15 0 27 5 27 10 0
12 -4 12 -51 1 -21 -5 -43 -5 -49 -1 -21 13 31 40 95 50 32 5 60 12 64 16 11
12 -112 -6 -141 -21 -27 -13 -28 -13 -28 14 0 22 8 31 38 45 20 10 52 20 70
22 33 2 50 10 41 18 -2 2 -13 0 -24 -4z"/>
<path d="M2147 1237 c-7 -19 8 -41 22 -33 16 10 14 46 -3 46 -8 0 -16 -6 -19
-13z"/>
<path d="M2190 1240 c0 -22 14 -40 31 -40 13 0 19 7 19 24 0 18 -5 24 -25 24
-14 0 -25 -4 -25 -8z"/>
<path d="M2252 1229 c4 -30 34 -37 41 -9 3 11 1 20 -3 20 -5 0 -16 3 -25 6
-13 5 -16 2 -13 -17z"/>
<path d="M2380 1229 c0 -11 5 -17 10 -14 6 3 10 1 10 -4 0 -6 7 -11 15 -11 9
0 15 9 15 25 0 20 -5 25 -25 25 -19 0 -25 -5 -25 -21z"/>
<path d="M2452 1238 c5 -15 35 -34 43 -27 3 4 3 14 -1 23 -7 18 -48 23 -42 4z"/>
<path d="M2643 1238 c6 -31 47 -30 47 1 0 14 -2 14 -10 1 -6 -10 -10 -11 -10
-2 0 6 -7 12 -15 12 -8 0 -14 -6 -12 -12z"/>
<path d="M1111 1212 c-1 -19 -4 -21 -20 -12 -38 20 -157 4 -219 -29 -26 -14
-67 -90 -55 -102 11 -11 55 12 68 36 26 51 49 74 77 80 17 4 35 2 41 -4 6 -6
30 -11 53 -11 24 0 45 -4 49 -9 6 -11 -32 -26 -54 -22 -7 1 -25 0 -39 -4 -24
-6 -24 -6 12 -24 64 -33 67 -33 60 -6 -4 15 -2 25 4 25 6 0 14 -15 18 -32 9
-44 13 -168 4 -168 -3 0 -15 -7 -26 -16 -18 -15 -18 -15 3 -9 19 5 25 1 33
-21 6 -15 10 -34 9 -43 -3 -31 1 -41 16 -41 19 0 19 -10 -2 -39 -9 -14 -11
-21 -5 -17 10 6 33 -34 45 -79 3 -11 17 -47 31 -80 33 -77 32 -101 -4 -213
-31 -97 -36 -122 -21 -122 19 0 75 198 69 241 -3 16 -1 29 4 29 4 0 8 -8 8
-17 0 -10 8 -27 16 -38 15 -19 16 -18 9 15 -10 51 -45 129 -62 138 -19 11 -26
105 -7 98 8 -3 11 0 7 10 -3 7 -4 14 -2 14 113 15 179 9 179 -15 0 -12 7 -11
32 5 18 11 53 22 78 26 25 4 50 10 55 14 6 4 28 7 50 7 22 1 41 6 43 12 2 6 8
11 13 11 4 0 5 -7 2 -17 -4 -10 -2 -14 4 -10 6 4 13 -5 15 -23 4 -28 2 -30
-26 -31 l-31 -1 28 -7 c33 -7 52 -41 62 -108 3 -27 10 -55 16 -63 5 -8 9 -13
9 -10 0 14 -30 170 -39 205 -14 52 -14 85 0 85 6 0 13 -9 16 -20 3 -11 9 -20
14 -20 5 0 6 -13 2 -30 -4 -25 -2 -30 13 -30 16 0 17 2 4 10 -8 5 -10 10 -4
10 6 0 11 13 10 30 -1 17 -7 30 -13 30 -7 0 -13 5 -13 10 0 6 14 10 31 10 16
0 28 4 25 8 -3 5 8 9 25 9 l29 0 -27 -20 c-16 -10 -20 -16 -9 -13 14 5 17 2
12 -9 -3 -9 -2 -13 4 -10 6 3 10 13 10 20 0 8 6 12 14 9 11 -4 13 0 9 15 -6
22 12 30 20 9 3 -8 6 -6 6 5 1 19 -43 25 -54 7 -10 -16 -25 -12 -25 8 0 9 -9
40 -19 67 -18 48 -21 50 -53 47 -18 -2 -105 -7 -193 -12 -183 -9 -275 -19
-275 -31 0 -12 75 -21 122 -14 23 3 102 10 173 15 72 5 144 12 162 16 28 5 33
3 48 -26 33 -64 27 -68 -155 -114 -158 -40 -171 -42 -310 -41 l-145 1 -12 60
c-7 32 -16 93 -19 134 -4 41 -13 92 -20 114 -15 40 -8 71 8 42 5 -9 13 -14 19
-11 5 4 4 15 -3 28 -7 12 -18 40 -25 62 -7 27 -11 33 -12 17z"/>
<path d="M2830 1136 c0 -62 4 -97 12 -102 8 -5 9 -2 5 9 -3 10 -2 17 3 17 6 0
10 7 10 15 0 8 -5 15 -11 15 -6 0 -9 5 -7 12 2 6 21 12 41 13 29 0 37 -3 34
-15 -1 -8 -10 -14 -19 -12 -9 1 -19 -2 -23 -8 -4 -7 3 -9 19 -6 22 4 25 1 23
-25 -1 -16 -6 -29 -10 -29 -5 0 -6 -4 -2 -9 7 -12 -15 -26 -24 -15 -3 5 -14
10 -23 10 -16 2 -18 -8 -18 -78 0 -43 4 -77 9 -74 14 9 20 60 9 74 -8 9 -6 11
8 6 18 -5 18 -5 2 6 -27 17 -22 28 12 26 32 -2 52 -16 33 -23 -16 -6 -17 -29
-3 -36 6 -3 5 -4 -2 -3 -16 3 -43 -22 -34 -32 4 -3 11 0 15 7 7 11 11 10 19
-4 7 -13 5 -28 -4 -51 -18 -43 -17 -56 2 -24 l15 25 -7 -25 c-7 -28 -53 -75
-62 -65 -4 3 -2 9 4 13 6 4 14 21 17 39 6 28 -4 43 -29 43 -6 0 -4 -152 2
-177 5 -19 13 -23 43 -23 20 0 42 -5 49 -12 9 -9 12 -9 12 -1 0 15 -53 53 -74
53 -23 0 -32 29 -14 47 20 20 54 3 70 -35 l12 -27 4 24 c3 17 -3 30 -20 43
-17 14 -18 17 -4 12 18 -7 18 -1 11 127 -4 74 -6 171 -5 217 1 67 -2 82 -14
82 -8 0 -20 -8 -26 -17 -8 -12 -13 -14 -16 -6 -3 7 -12 9 -20 6 -10 -4 -14 2
-14 20 0 14 7 27 15 31 18 6 9 36 -11 36 -11 0 -14 -20 -14 -94z"/>
<path d="M1277 1213 c-12 -11 -8 -23 8 -23 8 0 58 -29 112 -64 134 -87 170
-107 228 -122 88 -24 93 -14 15 27 -82 44 -172 96 -264 152 -58 36 -85 44 -99
30z"/>
<path d="M557 1175 c12 -8 22 -23 23 -33 0 -9 3 -45 6 -79 4 -46 2 -63 -6 -63
-10 0 -10 -3 0 -15 7 -8 10 -24 7 -35 -3 -11 -1 -23 4 -26 10 -6 12 170 3 226
-5 30 -10 36 -32 38 -27 2 -27 2 -5 -13z"/>
<path d="M1178 1162 c19 -16 58 -37 88 -47 30 -9 75 -34 101 -56 63 -52 89
-51 38 2 -40 41 -174 113 -230 124 l-30 6 33 -29z"/>
<path d="M2264 1176 c-6 -16 17 -46 36 -46 6 0 10 12 8 27 -3 31 -34 44 -44
19z"/>
<path d="M2320 1163 c0 -23 5 -33 15 -33 18 0 18 1 0 36 l-15 29 0 -32z"/>
<path d="M2660 1182 c0 -15 58 -64 71 -60 8 3 4 12 -12 27 -30 28 -59 45 -59
33z"/>
<path d="M320 1167 c0 -7 9 -18 19 -24 15 -10 20 -9 25 2 3 8 -3 19 -14 25
-24 13 -30 13 -30 -3z"/>
<path d="M676 1164 c-9 -23 -7 -34 4 -34 6 0 10 9 10 20 0 15 7 20 26 20 14 0
23 -4 19 -10 -3 -5 -1 -10 4 -10 6 0 11 7 11 15 0 21 -66 21 -74 -1z"/>
<path d="M2166 1158 c1 -13 3 -26 3 -30 1 -4 7 -5 15 -2 11 4 11 10 2 30 -14
30 -23 31 -20 2z"/>
<path d="M2536 1155 c9 -14 20 -25 24 -25 4 0 5 11 2 25 -3 16 -11 25 -23 25
-18 0 -19 -1 -3 -25z"/>
<path d="M2580 1158 c0 -17 7 -27 20 -31 29 -7 30 4 3 32 l-23 24 0 -25z"/>
<path d="M1788 1162 c-29 -6 -21 -22 20 -39 63 -27 94 -33 89 -20 -4 14 -69
47 -79 41 -3 -2 -8 2 -10 9 -2 7 -11 11 -20 9z"/>
<path d="M70 1153 c-79 -6 -84 -21 -6 -21 43 0 70 5 77 14 9 11 8 14 -2 12 -8
-1 -39 -3 -69 -5z"/>
<path d="M1710 1135 c-6 -40 2 -80 22 -108 27 -37 34 -28 12 15 -10 18 -21 51
-25 73 -3 22 -8 31 -9 20z"/>
<path d="M1597 1124 c-3 -4 12 -22 35 -41 22 -18 42 -32 45 -30 6 7 -9 37 -19
37 -5 0 -6 5 -3 10 3 6 -3 10 -14 10 -12 0 -21 5 -21 10 0 11 -13 13 -23 4z"/>
<path d="M954 1089 l-29 -20 50 6 c60 7 62 9 31 23 -19 8 -29 6 -52 -9z"/>
<path d="M2190 1101 c0 -21 13 -41 26 -41 11 0 11 5 2 25 -11 24 -28 34 -28
16z"/>
<path d="M2324 1088 c1 -17 8 -24 29 -26 15 -2 27 1 27 7 0 24 -14 41 -35 41
-17 0 -22 -5 -21 -22z"/>
<path d="M2457 1103 c-4 -3 -7 -15 -7 -25 0 -13 7 -18 25 -18 14 0 25 5 25 10
0 6 -7 10 -16 8 -10 -2 -19 3 -22 11 -3 9 0 11 8 6 9 -5 11 -4 6 3 -8 14 -10
14 -19 5z"/>
<path d="M2580 1083 c0 -12 5 -25 10 -28 6 -3 10 -17 10 -30 0 -12 7 -25 15
-29 13 -4 13 -2 5 14 -5 10 -10 27 -10 37 0 11 -7 28 -15 39 -14 19 -14 19
-15 -3z"/>
<path d="M90 1054 c0 -3 14 -10 30 -15 38 -14 39 -36 3 -42 -26 -4 -26 -4 5
-6 28 -1 32 2 32 24 0 16 -6 25 -15 25 -8 0 -15 5 -15 10 0 6 -9 10 -20 10
-11 0 -20 -2 -20 -6z"/>
<path d="M915 1052 c-12 -12 -3 -20 31 -26 19 -4 42 -10 50 -13 8 -3 14 -1 14
5 0 11 -87 42 -95 34z"/>
<path d="M2390 1029 c0 -21 6 -28 25 -31 21 -4 25 -1 25 18 0 13 -4 24 -10 24
-5 0 -10 -5 -10 -12 0 -6 -7 -3 -15 8 -14 18 -14 18 -15 -7z"/>
<path d="M2450 1028 c0 -14 5 -18 16 -14 9 3 20 6 25 6 20 0 7 18 -16 22 -20
4 -25 1 -25 -14z"/>
<path d="M2520 1020 c0 -23 5 -30 19 -30 25 0 32 12 20 30 -8 13 -10 13 -20 0
-9 -12 -10 -11 -6 8 3 12 1 22 -4 22 -5 0 -9 -13 -9 -30z"/>
<path d="M1160 1030 c0 -5 12 -13 28 -16 15 -4 32 -10 37 -14 12 -10 132 -25
124 -16 -9 10 -150 56 -171 56 -10 0 -18 -4 -18 -10z"/>
<path d="M1875 1021 l-30 -8 28 -13 c24 -12 30 -12 38 1 5 8 9 17 9 22 0 8 -2
8 -45 -2z"/>
<path d="M2021 1017 c-6 -8 -7 -18 -3 -22 4 -5 -2 -5 -12 -1 -15 5 -17 4 -7
-8 6 -7 12 -30 13 -50 1 -20 3 -36 4 -36 6 0 99 102 103 113 4 10 -14 -2 -76
-53 -23 -19 -25 -12 -7 48 7 25 2 28 -15 9z"/>
<path d="M2265 1010 c-7 -22 3 -80 13 -80 4 0 12 11 19 25 9 20 8 25 -2 25 -8
0 -11 9 -7 25 5 30 -14 34 -23 5z"/>
<path d="M847 977 c10 -32 25 -49 57 -70 43 -27 80 -35 90 -18 3 5 -8 11 -24
14 -43 9 -98 48 -111 80 -19 44 -27 40 -12 -6z"/>
<path d="M900 991 c14 -11 35 -21 48 -21 28 0 21 16 -10 23 -13 2 -32 8 -43
12 -16 5 -15 3 5 -14z"/>
<path d="M313 984 c0 -8 4 -14 9 -14 5 0 6 -4 3 -10 -13 -21 4 -9 18 14 15 22
15 24 -7 24 -13 0 -23 -7 -23 -14z"/>
<path d="M2133 990 c-13 -5 -23 -12 -23 -16 0 -3 7 -3 16 0 8 3 34 3 56 -1
l41 -6 -23 -19 c-12 -10 -20 -21 -16 -25 3 -4 17 4 31 17 l25 24 -27 18 c-31
20 -47 21 -80 8z"/>
<path d="M750 983 c0 -13 14 -30 30 -36 12 -4 11 -6 -2 -6 -10 -1 -18 -5 -18
-10 0 -5 9 -7 20 -4 23 6 27 33 5 33 -8 0 -15 7 -15 15 0 8 -4 15 -10 15 -5 0
-10 -3 -10 -7z"/>
<path d="M262 968 c-2 -21 -6 -22 -31 -6 -15 9 -22 8 -36 -5 -15 -16 -15 -17
2 -15 59 5 63 1 63 -57 l0 -55 28 12 c39 17 49 27 23 25 -11 -1 -21 -6 -21
-11 0 -6 -3 -6 -9 0 -6 5 -12 36 -14 69 -2 33 -4 52 -5 43z"/>
<path d="M1973 955 c15 -32 27 -32 27 0 0 18 -5 25 -19 25 -17 0 -18 -3 -8
-25z"/>
<path d="M2330 955 c0 -14 5 -25 10 -25 6 0 10 5 10 10 0 6 7 10 15 10 8 0 15
7 15 15 0 9 -9 15 -25 15 -20 0 -25 -5 -25 -25z"/>
<path d="M2390 955 c0 -20 5 -25 25 -25 20 0 25 5 25 25 0 20 -5 25 -25 25
-20 0 -25 -5 -25 -25z"/>
<path d="M2450 971 c0 -21 13 -41 26 -41 17 0 17 5 4 31 -11 20 -30 26 -30 10z"/>
<path d="M2522 955 c2 -17 8 -22 25 -21 34 2 32 40 -2 42 -20 2 -24 -3 -23
-21z"/>
<path d="M2590 959 c0 -22 5 -26 25 -26 14 0 25 3 25 8 0 5 -4 8 -9 7 -5 -2
-17 6 -25 17 -15 20 -15 19 -16 -6z"/>
<path d="M2651 948 c0 -13 3 -17 6 -10 2 6 9 10 14 6 5 -3 14 -2 20 2 8 4 7 9
-2 15 -24 15 -39 10 -38 -13z"/>
<path d="M955 941 c-7 -12 55 -25 82 -18 10 3 5 5 -14 6 -17 0 -35 6 -38 11
-8 13 -22 13 -30 1z"/>
<path d="M1202 939 c6 -19 83 -70 119 -79 19 -5 44 -12 57 -15 13 -5 22 -3 22
4 0 5 -6 8 -13 5 -8 -3 -20 2 -27 11 -7 8 -20 15 -30 15 -10 0 -41 16 -70 35
-56 38 -64 41 -58 24z"/>
<path d="M390 931 c0 -6 4 -13 10 -16 5 -3 14 -20 19 -38 l9 -32 1 33 c1 17
-3 32 -9 32 -5 0 -10 7 -10 15 0 8 -4 15 -10 15 -5 0 -10 -4 -10 -9z"/>
<path d="M2075 929 c-10 -16 -4 -16 45 -3 l45 12 -42 1 c-23 1 -45 -4 -48 -10z"/>
<path d="M1982 902 c4 -15 -1 -18 -28 -18 -40 0 -49 -7 -39 -31 6 -14 8 -15
13 -4 3 10 8 7 18 -10 l14 -24 -3 25 c-2 20 2 25 21 24 18 0 22 5 22 28 0 15
-5 28 -11 28 -6 0 -9 -8 -7 -18z"/>
<path d="M2280 901 c0 -27 -17 -35 -23 -11 -3 11 -11 20 -17 20 -7 0 -10 -7
-6 -16 3 -9 6 -19 6 -23 0 -4 18 -8 40 -9 44 -3 44 -4 30 32 -11 31 -30 34
-30 7z"/>
<path d="M2335 899 c-8 -23 1 -39 21 -39 11 0 13 6 9 20 -4 13 -2 20 6 20 16
0 3 13 -16 16 -8 1 -17 -6 -20 -17z"/>
<path d="M530 895 c0 -8 5 -15 11 -15 5 0 8 -4 5 -9 -3 -5 1 -11 9 -15 8 -3
17 -1 20 3 3 5 -2 11 -10 15 -8 3 -15 12 -15 21 0 8 -4 15 -10 15 -5 0 -10 -7
-10 -15z"/>
<path d="M2393 883 c1 -14 8 -28 15 -31 7 -2 10 2 6 12 -3 9 -1 16 5 16 6 0
11 -8 11 -17 0 -12 3 -14 11 -6 18 18 1 53 -26 53 -20 0 -23 -5 -22 -27z"/>
<path d="M2490 896 c0 -8 -3 -21 -6 -30 -4 -11 -1 -16 10 -16 11 0 16 9 16 30
0 17 -4 30 -10 30 -5 0 -10 -6 -10 -14z"/>
<path d="M2590 880 c0 -32 29 -44 31 -12 0 14 2 14 9 -3 7 -17 9 -15 9 13 1
28 -2 32 -24 32 -21 0 -25 -5 -25 -30z"/>
<path d="M2720 886 c0 -14 5 -28 10 -31 6 -3 10 0 10 9 0 8 3 21 6 30 4 11 1
16 -10 16 -10 0 -16 -9 -16 -24z"/>
<path d="M2074 885 c-22 -16 -48 -20 -39 -5 3 6 -1 7 -9 4 -24 -9 -19 -21 10
-27 18 -3 34 3 52 19 29 25 18 33 -14 9z"/>
<path d="M1003 871 c-32 -27 -28 -32 12 -16 25 11 41 12 62 5 l28 -10 -24 20
c-29 25 -49 25 -78 1z"/>
<path d="M2109 873 c-1 -5 -1 -12 0 -16 1 -5 -7 -11 -18 -14 -13 -3 -17 -11
-14 -24 3 -10 9 -19 13 -19 11 0 52 -113 43 -119 -10 -8 -11 -61 -1 -61 4 0
11 6 15 14 7 13 72 36 101 36 6 0 12 -8 12 -17 1 -17 1 -17 11 -1 10 18 2 68
-11 68 -5 0 -6 -8 -3 -19 4 -15 -3 -20 -33 -26 -41 -7 -64 10 -64 46 0 10 -5
21 -10 24 -6 4 -8 10 -5 15 6 10 -13 50 -29 61 -14 11 3 29 21 22 12 -5 12 -2
-3 15 -20 24 -23 26 -25 15z"/>
<path d="M491 838 c-1 -30 3 -38 17 -37 10 0 12 3 5 6 -10 3 -9 11 2 34 9 17
11 29 5 29 -5 0 -10 -8 -11 -17 0 -15 -2 -15 -9 2 -7 16 -9 13 -9 -17z"/>
<path d="M231 853 c-1 -7 -8 -10 -18 -6 -12 5 -15 2 -10 -10 7 -19 -22 -24
-38 -8 -6 6 -11 -14 -13 -55 -2 -58 -1 -64 17 -64 12 0 19 5 17 13 -3 6 -7 27
-10 45 -5 28 -3 32 17 32 34 1 55 21 46 45 -4 11 -8 15 -8 8z"/>
<path d="M2020 819 c0 -14 5 -19 17 -17 26 5 29 38 4 38 -15 0 -21 -6 -21 -21z"/>
<path d="M2250 834 c0 -10 26 -31 48 -38 23 -8 27 0 16 28 -6 15 -64 24 -64
10z"/>
<path d="M2345 832 c6 -4 10 -13 10 -21 0 -8 5 -16 11 -18 7 -2 12 7 12 22 0
19 -6 25 -22 25 -11 0 -16 -4 -11 -8z"/>
<path d="M2401 830 c-1 -17 17 -40 31 -40 4 0 8 12 8 26 0 22 -3 24 -14 15
-11 -9 -15 -9 -19 1 -4 9 -6 8 -6 -2z"/>
<path d="M2470 816 c0 -17 5 -23 20 -22 11 0 20 4 20 9 0 4 0 13 0 20 0 7 -9
13 -20 14 -15 1 -20 -4 -20 -21z"/>
<path d="M2530 815 c0 -20 5 -24 24 -23 17 2 24 8 24 25 0 18 -6 23 -24 23
-19 0 -24 -5 -24 -25z"/>
<path d="M2663 816 c0 -19 5 -23 23 -22 19 1 24 6 23 26 -1 17 -3 19 -6 8 -2
-10 -9 -18 -15 -18 -5 0 -8 7 -4 15 3 9 0 15 -8 15 -8 0 -13 -11 -13 -24z"/>
<path d="M589 820 c-1 -5 -2 -15 -3 -22 0 -7 -12 -15 -26 -19 -23 -6 -22 -7 8
-8 29 -1 32 2 32 29 0 28 -8 43 -11 20z"/>
<path d="M952 821 c-5 -3 -19 -25 -31 -48 l-21 -43 24 0 c26 0 48 21 44 41 -2
9 9 15 30 17 17 2 32 7 32 11 0 11 -66 30 -78 22z"/>
<path d="M310 806 c0 -21 -21 -31 -30 -16 -6 10 -11 10 -23 -1 -18 -17 -3 -59
21 -59 9 0 12 3 9 7 -4 3 5 16 18 29 25 23 34 54 15 54 -5 0 -10 -6 -10 -14z"/>
<path d="M739 780 c-6 -30 8 -90 21 -90 6 0 10 5 10 10 0 6 -4 10 -9 10 -6 0
-11 21 -13 48 -2 34 -5 40 -9 22z"/>
<path d="M393 783 c-7 -2 -13 -16 -13 -29 0 -25 -15 -30 -40 -14 -10 6 -11 10
-2 10 6 0 12 7 12 15 0 8 -4 15 -9 15 -11 0 -36 -30 -25 -30 5 0 2 -4 -6 -10
-11 -7 -9 -11 13 -19 15 -6 27 -15 27 -21 0 -6 8 -5 20 2 11 7 20 21 20 31 0
10 5 27 10 38 6 10 9 19 8 18 -2 0 -9 -3 -15 -6z"/>
<path d="M995 745 c-26 -25 -45 -48 -42 -52 10 -10 58 7 51 18 -11 18 37 59
70 59 17 0 38 5 46 10 11 7 2 10 -31 10 -41 0 -51 -5 -94 -45z"/>
<path d="M2037 772 c-21 -23 -21 -29 -3 -47 11 -12 15 -10 25 11 22 50 9 71
-22 36z"/>
<path d="M490 764 c0 -10 -6 -13 -18 -10 -13 4 -22 -1 -32 -18 -8 -16 -18 -22
-29 -18 -14 5 -13 3 2 -12 9 -10 15 -22 12 -27 -8 -13 9 -11 22 2 13 13 76 2
67 -12 -3 -5 -1 -9 4 -9 6 0 9 10 8 23 -1 20 -6 23 -36 21 -19 -1 -38 0 -42 2
-13 8 4 35 18 30 8 -3 26 -1 40 4 22 9 24 13 14 25 -16 19 -30 19 -30 -1z"/>
<path d="M2290 750 c34 -47 91 -38 60 10 -8 12 -10 10 -11 -10 l-1 -25 -10 28
c-7 19 -17 27 -35 27 l-24 0 21 -30z"/>
<path d="M2401 750 c1 -19 3 -27 6 -17 2 9 9 17 15 17 5 0 8 -7 4 -15 -3 -8
-1 -15 3 -15 12 0 19 21 13 43 -5 20 -22 23 -22 5 0 -9 -4 -8 -10 2 -7 11 -9
6 -9 -20z"/>
<path d="M2640 771 c0 -5 9 -7 20 -4 15 4 19 2 15 -10 -4 -8 1 -17 9 -20 19
-7 20 -3 6 24 -11 19 -50 27 -50 10z"/>
<path d="M2509 750 c-8 -36 -1 -49 21 -43 19 5 47 63 29 63 -5 0 -9 -5 -9 -11
0 -6 -6 -17 -14 -25 -13 -12 -15 -10 -18 13 l-3 28 -6 -25z"/>
<path d="M584 744 c3 -8 2 -12 -4 -9 -6 3 -10 -3 -10 -14 0 -23 -15 -28 -23
-8 -3 6 -6 -1 -6 -18 0 -21 2 -26 8 -16 5 7 14 10 20 7 6 -4 11 0 11 8 0 9 5
16 10 16 6 0 10 11 10 25 0 14 -5 25 -11 25 -6 0 -8 -7 -5 -16z"/>
<path d="M101 738 c0 -9 -7 -19 -13 -21 -10 -4 -10 -6 0 -6 6 -1 12 -8 12 -17
0 -12 -7 -15 -27 -11 -26 5 -26 4 -8 -9 10 -8 34 -20 52 -26 18 -7 33 -16 33
-20 0 -4 7 -8 15 -8 9 0 12 6 9 15 -4 8 -10 13 -14 10 -5 -3 -11 -1 -15 5 -3
5 -16 11 -28 11 -19 1 -19 2 -3 6 15 4 16 7 5 14 -12 8 -12 11 1 19 9 6 10 10
3 10 -6 0 -14 10 -16 23 -2 13 -5 15 -6 5z"/>
<path d="M1999 739 c0 -2 -2 -19 -4 -37 -4 -42 -34 -88 -102 -159 -13 -13 -23
-26 -23 -28 0 -3 -7 -19 -15 -35 -14 -27 -14 -31 4 -49 10 -10 33 -48 50 -84
30 -63 103 -151 115 -139 3 3 6 0 6 -6 0 -19 42 -14 70 8 29 23 54 26 47 6 -3
-7 -2 -17 3 -22 5 -5 17 -51 27 -101 10 -51 22 -93 27 -93 15 0 -1 111 -29
201 l-27 86 37 36 c21 21 44 37 50 37 7 0 18 6 24 14 17 21 -5 31 -25 12 -8
-9 -21 -16 -27 -16 -7 0 -18 -9 -25 -21 -7 -11 -19 -18 -26 -16 -8 3 -24 -16
-41 -54 -21 -42 -34 -59 -48 -59 -27 0 -76 55 -116 131 -19 35 -38 66 -43 67
-4 2 -8 12 -8 22 0 10 -4 22 -10 25 -17 10 -12 17 60 100 83 95 95 121 69 154
-11 13 -19 22 -20 20z"/>
<path d="M840 723 c0 -5 5 -15 10 -23 7 -11 12 -12 21 -3 6 6 8 16 5 22 -8 12
-36 15 -36 4z"/>
<path d="M1277 718 c6 -11 83 -9 108 2 14 6 -1 8 -47 7 -36 -1 -64 -5 -61 -9z"/>
<path d="M1094 712 c-16 -10 -37 -53 -30 -60 3 -3 6 -1 6 4 0 18 42 55 56 50
8 -3 14 -1 14 4 0 12 -30 13 -46 2z"/>
<path d="M2625 706 c11 -8 26 -20 33 -27 7 -6 26 -13 43 -16 26 -4 29 -2 28
24 0 15 -3 23 -5 17 -3 -8 -15 -9 -37 -4 -18 5 -43 12 -57 15 -24 6 -24 6 -5
-9z"/>
<path d="M1500 700 c-40 -6 -41 -7 -10 -8 19 0 60 3 90 8 54 7 54 7 10 7 -25
0 -65 -3 -90 -7z"/>
<path d="M2325 688 c10 -31 21 -42 29 -29 4 6 2 11 -4 11 -8 0 -8 6 0 20 9 17
8 20 -10 20 -17 0 -20 -4 -15 -22z"/>
<path d="M183 685 c0 -8 6 -15 14 -15 7 0 13 -8 13 -17 0 -12 3 -14 11 -6 6 6
8 21 4 33 -6 18 -9 20 -16 9 -6 -10 -9 -11 -9 -1 0 6 -4 12 -8 12 -5 0 -9 -7
-9 -15z"/>
<path d="M914 671 c10 -11 28 -22 42 -25 13 -4 24 -13 24 -22 0 -8 9 -25 21
-37 33 -35 93 -158 101 -207 4 -25 3 -61 -2 -80 -7 -25 -6 -36 3 -42 9 -6 7
-12 -7 -23 -17 -13 -18 -15 -3 -15 13 0 17 -10 18 -42 0 -24 4 -52 9 -63 7
-18 8 -18 15 7 4 16 4 36 -1 45 -4 10 -8 35 -8 55 -1 33 2 37 18 32 16 -5 18
-3 11 12 -4 11 -17 50 -28 87 -18 59 -19 70 -6 78 12 7 11 9 -2 9 -16 0 -34
26 -31 43 1 4 -3 7 -9 7 -5 0 -7 5 -4 11 4 6 -3 21 -15 34 -13 14 -19 29 -15
36 6 8 4 10 -5 4 -9 -5 -10 -2 -5 14 4 12 2 21 -4 21 -18 0 -12 29 10 51 28
28 19 34 -19 12 -29 -17 -33 -17 -78 0 -47 17 -47 17 -30 -2z"/>
<path d="M2587 683 c-10 -9 -9 -41 2 -47 5 -3 11 8 13 24 4 29 -1 37 -15 23z"/>
<path d="M272 645 c-2 -33 -1 -34 18 -23 11 7 18 19 15 26 -3 8 -5 18 -5 23 0
5 -6 9 -12 9 -8 0 -14 -15 -16 -35z"/>
<path d="M350 639 c0 -12 4 -17 11 -14 6 4 13 -2 16 -14 6 -24 43 -29 43 -6 0
8 -8 15 -19 15 -10 0 -21 9 -24 20 -7 26 -27 26 -27 -1z"/>
<path d="M2728 600 c4 -34 1 -39 -20 -42 -20 -3 -16 -7 24 -26 61 -29 70 -28
66 6 -3 23 -7 27 -30 24 -20 -2 -28 2 -28 13 0 23 32 54 38 37 6 -18 21 -15
18 5 -3 18 -33 27 -42 12 -4 -6 -10 -6 -18 0 -8 7 -10 0 -8 -29z"/>
<path d="M480 619 l-55 -6 47 -1 c35 -2 48 -6 51 -19 4 -17 5 -17 6 0 1 13 10
17 43 17 23 0 39 2 37 4 -10 8 -78 11 -129 5z"/>
<path d="M2535 622 c-5 -4 -16 -15 -24 -24 -12 -16 -11 -18 2 -18 9 0 18 8 20
18 4 16 5 16 6 0 1 -13 10 -18 30 -18 41 0 48 16 10 24 -17 3 -28 10 -24 16 7
12 -5 13 -20 2z"/>
<path d="M205 610 c-4 -6 -11 -8 -16 -5 -5 4 -9 1 -9 -4 0 -15 33 -14 48 1 9
9 12 9 12 1 0 -7 -4 -15 -10 -18 -5 -3 -10 -14 -10 -23 0 -12 6 -8 19 12 11
17 18 33 15 38 -7 11 -42 10 -49 -2z"/>
<path d="M2850 558 c0 -63 12 -100 27 -84 4 5 2 11 -4 13 -29 10 -11 24 25 18
l37 -6 -31 15 c-24 11 -33 23 -38 51 -5 27 -4 40 6 46 10 7 9 9 -4 9 -15 0
-18 -10 -18 -62z"/>
<path d="M11 596 c-7 -8 -11 -23 -8 -33 4 -15 5 -14 6 3 1 17 7 21 27 18 16
-1 24 2 21 9 -6 18 -32 20 -46 3z"/>
<path d="M780 538 c0 -39 3 -68 7 -65 3 4 12 2 20 -4 8 -7 13 -8 13 -1 0 5 -7
12 -15 16 -10 3 -15 19 -15 45 0 32 3 39 15 35 18 -7 19 5 1 29 -22 29 -26 20
-26 -55z"/>
<path d="M2913 603 c-8 -3 -5 -11 8 -24 20 -20 20 -21 2 -42 -10 -12 -14 -19
-9 -15 5 4 15 3 23 -3 10 -9 13 -4 11 30 -1 42 -14 62 -35 54z"/>
<path d="M902 584 c-7 -8 -17 -12 -23 -9 -5 4 -9 -1 -9 -10 0 -9 6 -15 13 -13
22 4 87 -13 87 -22 0 -6 7 -10 16 -10 11 0 8 8 -13 28 -50 48 -57 52 -71 36z"/>
<path d="M2356 588 c3 -4 26 -8 52 -8 34 0 43 3 32 10 -18 12 -91 10 -84 -2z"/>
<path d="M2640 584 c0 -7 -6 -14 -12 -17 -7 -2 -1 -4 14 -3 16 1 29 8 31 18 3
11 -1 16 -14 15 -11 -1 -19 -7 -19 -13z"/>
<path d="M477 576 c-31 -24 -13 -57 20 -37 16 9 15 10 -6 11 -24 0 -24 1 -5
14 10 8 17 17 14 19 -3 3 -13 0 -23 -7z"/>
<path d="M546 576 c3 -9 18 -16 32 -16 29 0 20 14 -15 25 -18 5 -22 3 -17 -9z"/>
<path d="M2290 570 c0 -6 5 -10 10 -10 6 0 10 -8 10 -17 0 -11 3 -13 9 -7 19
18 16 36 -6 40 -13 2 -23 -1 -23 -6z"/>
<path d="M712 555 c-23 -12 -23 -13 -3 -18 12 -3 21 -1 21 3 0 4 10 6 23 2 20
-5 21 -4 8 11 -15 19 -18 20 -49 2z"/>
<path d="M2347 555 c-4 -8 -2 -17 2 -20 5 -3 12 2 15 11 5 13 15 15 51 10 29
-5 45 -4 45 3 0 18 -107 14 -113 -4z"/>
<path d="M841 481 c-2 -78 -1 -79 21 -73 19 5 20 7 5 10 -15 3 -18 13 -16 68
1 35 0 67 -3 69 -3 3 -6 -30 -7 -74z"/>
<path d="M381 524 c-1 -12 8 -32 19 -45 17 -21 19 -22 20 -5 0 15 3 16 15 6 8
-7 15 -8 15 -2 0 15 -28 34 -40 27 -5 -3 -14 4 -19 17 -9 22 -10 22 -10 2z"/>
<path d="M2655 520 c-11 -5 -32 -11 -47 -14 -16 -4 -28 -10 -28 -15 0 -10 14
-9 43 4 9 4 25 5 35 3 9 -2 25 4 35 14 16 17 16 18 0 17 -10 0 -27 -4 -38 -9z"/>
<path d="M2391 491 c-1 -18 -4 -22 -12 -14 -7 7 -24 8 -47 2 -20 -4 -39 -7
-42 -6 -3 1 -6 -6 -8 -15 -4 -19 22 -25 33 -8 3 5 21 8 40 6 19 -1 40 1 47 5
6 4 22 3 35 -2 25 -9 53 -3 53 13 0 5 -5 6 -11 3 -18 -12 -77 5 -82 23 -3 11
-5 9 -6 -7z"/>
<path d="M107 470 c-2 -8 0 -24 4 -35 6 -17 8 -17 8 -2 1 9 6 17 12 17 5 0 7
5 4 10 -3 6 -1 10 4 10 6 0 11 4 11 8 0 15 -39 8 -43 -8z"/>
<path d="M2059 457 c-11 -20 -11 -21 5 -8 15 13 19 13 26 1 15 -24 -9 -42 -44
-34 -27 6 -29 5 -17 -10 7 -9 21 -16 31 -16 21 0 48 38 42 62 -5 26 -30 30
-43 5z"/>
<path d="M2125 469 c-4 -6 0 -16 9 -22 9 -7 20 -25 24 -42 8 -27 9 -28 14 -8
6 22 -18 83 -33 83 -4 0 -11 -5 -14 -11z"/>
<path d="M9 443 c6 -13 16 -23 21 -23 4 0 18 -16 30 -34 14 -24 26 -33 37 -29
13 5 15 1 11 -20 -5 -24 -3 -26 19 -21 20 5 23 3 20 -17 -2 -13 -9 -25 -15
-27 -7 -2 -12 -8 -12 -13 0 -5 11 -4 26 1 14 6 30 8 35 4 5 -3 9 2 9 11 0 11
-5 15 -15 11 -8 -3 -15 -1 -15 4 0 6 5 10 12 10 6 0 8 3 5 7 -4 3 -2 12 4 20
9 9 8 13 0 13 -6 0 -11 -4 -11 -10 0 -5 -5 -10 -11 -10 -6 0 -9 6 -6 13 3 8 1
20 -5 28 -8 11 -9 10 -4 -3 3 -10 1 -18 -4 -18 -6 0 -10 6 -10 14 0 9 -12 16
-27 18 -16 2 -29 9 -29 16 -1 6 -2 17 -3 23 0 5 -5 8 -10 4 -6 -3 -13 0 -18 7
-4 7 -17 20 -27 28 -18 14 -19 14 -7 -7z"/>
<path d="M2850 407 c0 -56 0 -57 20 -40 24 21 25 24 5 16 -13 -4 -15 2 -13 30
1 20 -1 39 -5 43 -4 4 -7 -18 -7 -49z"/>
<path d="M2517 430 c-17 -20 -13 -32 9 -23 8 3 11 9 8 14 -10 17 9 9 22 -8 10
-15 15 -16 25 -5 11 10 10 12 -4 12 -9 0 -17 4 -17 9 0 18 -28 19 -43 1z"/>
<path d="M2920 440 c13 -9 13 -11 0 -20 -12 -8 -11 -10 8 -10 15 0 22 6 22 20
0 14 -7 20 -22 20 -19 0 -20 -2 -8 -10z"/>
<path d="M208 419 c-22 -24 -22 -25 1 -25 11 0 18 3 15 7 -2 4 2 9 8 12 9 3
10 8 3 14 -7 7 -16 4 -27 -8z"/>
<path d="M2288 365 c6 -84 12 -98 12 -27 0 40 4 52 18 55 13 4 12 5 -5 6 -12
0 -24 9 -26 19 -3 9 -2 -14 1 -53z"/>
<path d="M2348 393 c2 -18 8 -33 13 -33 5 0 6 7 3 15 -4 8 -1 21 5 29 9 10 7
15 -7 18 -15 4 -17 0 -14 -29z"/>
<path d="M280 410 c0 -5 -9 -10 -21 -10 -11 0 -17 -4 -14 -10 9 -14 34 -12 51
4 18 19 18 26 -1 26 -8 0 -15 -4 -15 -10z"/>
<path d="M777 405 c-8 -8 -17 -12 -19 -9 -8 8 -58 -15 -58 -26 0 -7 6 -8 19 0
29 15 41 12 34 -7 -4 -10 6 -4 23 13 17 17 37 34 45 37 9 3 6 6 -8 6 -12 1
-28 -6 -36 -14z"/>
<path d="M2607 378 c8 -59 13 -61 13 -5 0 26 -4 47 -9 47 -5 0 -7 -19 -4 -42z"/>
<path d="M2741 392 c-1 -45 18 -65 45 -45 18 14 18 14 -6 11 -22 -3 -26 2 -31
32 l-6 35 -2 -33z"/>
<path d="M562 395 c-1 -11 -5 -30 -8 -42 -5 -19 -2 -23 15 -23 12 0 19 -4 16
-10 -3 -5 -2 -10 4 -10 16 0 22 18 9 23 -10 4 -10 6 0 6 6 1 12 6 12 13 0 9
-3 9 -12 0 -20 -20 -27 -14 -31 26 -2 20 -4 28 -5 17z"/>
<path d="M1003 395 c0 -8 4 -12 9 -9 4 3 8 -4 8 -15 0 -14 5 -19 15 -15 17 7
21 34 4 34 -5 0 -8 4 -5 8 2 4 -3 8 -13 9 -10 1 -18 -5 -18 -12z"/>
<path d="M25 385 c4 -11 9 -41 12 -67 3 -27 10 -48 15 -48 5 0 8 -8 6 -17 -2
-12 4 -18 17 -18 13 0 19 -7 19 -18 -1 -9 2 -14 7 -11 17 10 9 36 -12 41 -16
5 -18 8 -7 15 10 7 10 11 1 15 -7 2 -13 15 -13 28 0 13 -6 30 -13 37 -7 7 -18
24 -25 38 -7 14 -10 17 -7 5z"/>
<path d="M321 379 c-23 -9 -24 -10 -5 -24 22 -16 54 -20 54 -5 0 5 -7 7 -16 3
-13 -5 -15 -2 -9 15 3 12 5 22 3 21 -2 0 -14 -5 -27 -10z"/>
<path d="M958 372 c-5 -18 -2 -22 18 -22 13 0 24 5 24 10 0 6 -6 10 -14 10 -8
0 -16 6 -18 12 -3 7 -7 2 -10 -10z"/>
<path d="M210 365 c0 -8 5 -15 11 -15 5 0 7 -4 4 -10 -3 -5 -1 -10 4 -10 6 0
11 11 11 25 0 16 -6 25 -15 25 -8 0 -15 -7 -15 -15z"/>
<path d="M2478 355 c-3 -16 -6 -31 -5 -31 9 -7 67 11 67 21 0 8 -9 10 -24 8
-18 -4 -25 0 -28 14 -3 13 -6 9 -10 -12z"/>
<path d="M2380 356 c0 -23 19 -29 36 -12 9 9 20 14 25 11 5 -4 9 -1 9 4 0 17
-31 13 -47 -6 -14 -17 -14 -17 -9 0 3 9 1 17 -4 17 -6 0 -10 -6 -10 -14z"/>
<path d="M385 336 c-8 -8 -7 -19 2 -36 12 -25 13 -25 13 -2 0 14 6 22 18 23
13 0 14 2 2 6 -8 3 -17 9 -20 13 -3 4 -10 3 -15 -4z"/>
<path d="M1990 342 c0 -14 69 -76 77 -69 3 4 -4 19 -18 33 -27 29 -59 49 -59
36z"/>
<path d="M2929 329 c-11 -11 -18 -23 -16 -26 8 -7 47 21 47 34 0 18 -7 16 -31
-8z"/>
<path d="M2359 328 c-1 -7 -1 -19 0 -25 1 -7 -5 -13 -14 -13 -8 0 -15 -4 -15
-10 0 -5 6 -7 14 -4 10 4 16 -3 19 -23 2 -15 5 -2 6 30 0 31 -1 57 -4 57 -3 0
-6 -6 -6 -12z"/>
<path d="M2646 326 c8 -20 -26 -36 -76 -36 -25 0 -39 -4 -35 -10 3 -5 -2 -10
-12 -11 -10 0 -13 -3 -6 -5 7 -3 22 0 34 6 17 9 23 9 29 0 5 -9 9 -9 14 -1 11
18 26 13 26 -9 0 -11 5 -20 11 -20 7 0 9 10 7 25 -4 20 -1 25 14 25 14 0 18 5
14 16 -3 9 -6 20 -6 25 0 5 -4 9 -10 9 -5 0 -7 -6 -4 -14z"/>
<path d="M790 320 c0 -12 28 -20 45 -14 8 4 15 1 15 -6 0 -6 5 -8 11 -4 17 10
-6 28 -41 30 -16 1 -30 -2 -30 -6z"/>
<path d="M900 315 c0 -8 6 -15 13 -15 8 0 7 -4 -3 -10 -9 -6 -10 -10 -3 -10
11 0 33 30 33 44 0 3 -9 6 -20 6 -11 0 -20 -7 -20 -15z"/>
<path d="M2778 318 c-10 -7 -14 -18 -10 -25 10 -17 35 0 30 21 -2 14 -6 15
-20 4z"/>
<path d="M316 293 c-3 -10 -9 -24 -12 -30 -3 -7 -1 -13 5 -13 6 0 11 8 11 18
1 16 2 16 14 -1 11 -14 24 -17 53 -15 l38 4 -42 8 c-41 8 -60 26 -28 26 8 0
15 5 15 10 0 18 -47 11 -54 -7z"/>
<path d="M2871 297 c-14 -14 -15 -37 -1 -37 6 0 10 5 10 11 0 6 5 9 11 7 6 -2
9 -8 7 -13 -2 -6 -6 -9 -10 -7 -5 1 -8 -5 -8 -13 0 -8 7 -15 15 -15 8 0 15 5
15 10 0 6 11 10 25 10 18 0 25 5 25 20 0 25 -17 26 -23 3 -4 -17 -5 -17 -6 0
0 10 -5 16 -10 12 -5 -3 -16 1 -24 9 -11 11 -17 12 -26 3z"/>
<path d="M582 251 c26 -61 28 -62 28 -12 0 34 -3 42 -15 37 -8 -3 -15 -1 -15
3 0 5 6 11 13 14 6 3 2 5 -9 4 l-22 -1 20 -45z"/>
<path d="M770 280 c7 -5 10 -15 6 -26 -6 -16 -7 -16 -21 2 -13 18 -14 18 -9
-3 5 -16 13 -21 35 -21 17 1 29 7 29 15 0 7 -5 13 -11 13 -5 0 -8 4 -4 10 9
14 34 0 28 -16 -3 -8 0 -14 7 -14 6 0 10 10 8 23 -2 18 -10 22 -42 24 -23 0
-34 -2 -26 -7z"/>
<path d="M2276 245 c4 -10 19 -15 43 -15 l36 1 -34 14 c-42 19 -52 19 -45 0z"/>
<path d="M142 233 c-14 -25 1 -41 22 -24 7 6 16 8 19 4 4 -3 7 2 7 11 0 12 -5
16 -14 13 -8 -3 -16 -1 -19 6 -2 7 -9 3 -15 -10z"/>
<path d="M2860 183 c0 -60 3 -71 15 -67 8 4 12 11 8 18 -3 6 -1 6 8 -2 7 -6
23 -12 35 -12 12 0 25 -6 27 -12 3 -7 5 20 5 60 -1 42 -5 72 -11 72 -6 0 -7
-3 -4 -7 4 -3 0 -15 -10 -25 -12 -13 -13 -18 -3 -18 9 0 7 -5 -6 -15 -14 -11
-15 -14 -4 -15 13 0 13 -2 1 -9 -17 -11 -43 -3 -35 10 3 5 0 9 -7 9 -7 0 -10
10 -6 28 3 15 2 34 -4 42 -6 10 -9 -9 -9 -57z"/>
<path d="M2200 227 c0 -16 57 -20 66 -5 5 8 2 9 -9 5 -10 -3 -17 -3 -17 1 0 4
-9 8 -20 9 -11 1 -20 -4 -20 -10z"/>
<path d="M435 218 c-4 -10 -4 -22 0 -28 8 -12 75 -14 75 -1 0 10 -30 25 -44
22 -5 -1 -13 4 -17 11 -6 9 -9 8 -14 -4z"/>
<path d="M507 215 c16 -27 38 -45 58 -45 13 0 26 -9 33 -22 10 -22 11 -22 11
8 1 29 -1 31 -26 26 -28 -5 -28 -5 -9 17 19 21 19 21 0 23 -57 4 -72 3 -67 -7z"/>
<path d="M2561 200 c-2 -27 -4 -31 -10 -16 -5 12 -10 15 -14 9 -4 -6 0 -16 8
-23 18 -15 29 6 22 42 -3 17 -5 14 -6 -12z"/>
<path d="M753 213 c10 -2 16 -11 15 -18 -2 -8 2 -13 7 -12 6 1 9 8 9 15 -1 6
2 12 7 12 5 0 9 -8 9 -19 0 -14 6 -17 24 -14 15 3 23 11 22 21 -2 13 -15 17
-57 19 -30 1 -46 -1 -36 -4z"/>
<path d="M60 195 c15 -18 -1 -20 -19 -2 -11 10 -12 8 -3 -9 6 -12 8 -25 4 -30
-4 -5 0 -3 9 4 9 6 19 9 22 5 4 -3 6 6 5 20 -1 16 -8 27 -16 27 -12 0 -12 -3
-2 -15z"/>
<path d="M220 200 c-13 -8 -13 -10 1 -10 9 0 19 -9 22 -20 4 -14 10 -18 22
-14 13 5 14 8 3 15 -7 5 -13 14 -13 20 0 17 -17 21 -35 9z"/>
<path d="M2612 198 c-8 -10 -2 -13 23 -13 18 0 37 4 42 9 4 5 -1 7 -14 3 -13
-3 -23 -1 -23 4 0 13 -16 11 -28 -3z"/>
<path d="M333 194 c10 -10 87 -14 87 -4 0 6 -21 10 -47 10 -25 0 -44 -3 -40
-6z"/>
<path d="M1068 188 c-5 -13 -19 -18 -45 -19 l-38 -1 44 -9 c51 -10 54 -9 49
23 -3 19 -4 20 -10 6z"/>
<path d="M116 164 c8 -36 9 -37 28 -32 11 2 9 9 -10 32 l-25 28 7 -28z"/>
<path d="M2300 175 c0 -16 -16 -21 -22 -6 -1 4 -12 -1 -23 -12 -20 -19 -20
-19 15 -12 19 4 38 9 43 12 11 6 9 33 -3 33 -5 0 -10 -7 -10 -15z"/>
<path d="M410 160 c0 -12 34 -30 57 -29 14 0 15 2 3 6 -8 3 -19 12 -23 19 -9
16 -37 19 -37 4z"/>
<path d="M2630 163 c0 -7 -9 -13 -21 -13 -11 0 -18 -4 -15 -8 3 -4 22 -6 43
-4 21 3 31 7 23 10 -8 3 -18 10 -22 16 -5 8 -8 7 -8 -1z"/>
<path d="M267 128 c-29 -31 -33 -63 -7 -63 10 0 15 10 15 29 1 20 7 32 20 36
27 10 39 2 24 -16 -6 -8 -8 -14 -5 -14 4 0 2 -9 -4 -20 -12 -23 2 -27 20 -5 7
8 17 12 24 8 6 -4 4 1 -4 11 -8 10 -15 24 -16 30 0 6 -2 17 -2 24 -3 21 -36
11 -65 -20z"/>
<path d="M517 148 c-3 -9 7 -14 29 -15 19 -2 34 1 34 6 0 15 -18 22 -25 11 -5
-8 -11 -8 -20 0 -9 8 -14 7 -18 -2z"/>
<path d="M743 137 c2 -6 12 -16 24 -24 19 -13 21 -12 21 10 0 19 -6 25 -25 25
-13 0 -22 -5 -20 -11z"/>
<path d="M804 135 c-8 -20 4 -35 29 -35 18 0 19 2 7 11 -11 8 -12 12 -2 16 19
8 14 23 -8 23 -11 0 -23 -7 -26 -15z"/>
<path d="M2450 136 c0 -16 19 -25 38 -19 22 8 13 33 -13 33 -15 0 -25 -6 -25
-14z"/>
<path d="M2761 128 c-1 -14 -7 -29 -13 -31 -8 -3 -6 -6 5 -6 9 -1 17 -5 17
-11 0 -5 7 -7 15 -4 12 5 15 -2 15 -29 0 -25 -5 -37 -17 -40 -12 -3 -9 -5 8
-6 25 -1 26 0 18 46 -4 27 -8 55 -9 63 0 12 -2 13 -9 1 -6 -10 -11 -6 -19 15
l-10 29 -1 -27z"/>
<path d="M690 130 c0 -5 -7 -7 -15 -4 -12 5 -15 -5 -15 -60 0 -36 4 -66 9 -66
6 0 9 25 8 55 -3 56 5 69 35 54 17 -9 36 6 24 19 -11 10 -46 12 -46 2z"/>
<path d="M970 126 c0 -8 -6 -16 -12 -19 -7 -2 -5 -3 4 -2 10 2 21 -1 24 -6 11
-19 35 -9 32 14 -4 26 -48 39 -48 13z"/>
<path d="M1043 125 c-20 -22 -15 -35 12 -35 20 0 25 5 25 25 0 27 -18 32 -37
10z"/>
<path d="M190 100 c8 -15 8 -20 -2 -20 -9 0 -9 -3 2 -10 22 -14 40 -12 40 6 0
8 -4 13 -9 10 -5 -3 -11 3 -14 14 -3 11 -10 20 -16 20 -9 0 -9 -5 -1 -20z"/>
<path d="M410 103 c1 -11 26 -43 34 -43 4 0 4 5 1 10 -4 6 -1 17 5 25 10 13 8
15 -14 15 -14 0 -26 -3 -26 -7z"/>
<path d="M537 82 c-9 -10 -17 -21 -17 -23 0 -3 23 -6 51 -7 37 -1 50 1 46 10
-2 7 -12 12 -21 10 -10 -2 -23 4 -30 13 -11 15 -13 15 -29 -3z"/>
<path d="M2871 50 l2 -55 7 45 c4 25 4 49 -1 55 -5 5 -8 -13 -8 -45z"/>
<path d="M700 82 c0 -6 -3 -17 -6 -26 -4 -11 0 -14 15 -13 25 2 27 13 6 33 -8
9 -15 11 -15 6z"/>
<path d="M757 78 c4 -7 8 -16 8 -20 0 -19 18 -11 21 10 3 17 -1 22 -17 22 -14
0 -18 -4 -12 -12z"/>
<path d="M800 79 c0 -5 7 -12 15 -15 8 -4 13 -9 10 -13 -2 -4 2 -8 10 -8 16 0
19 16 7 32 -9 13 -42 16 -42 4z"/>
<path d="M2325 81 c-3 -6 -22 -11 -41 -11 -19 0 -34 -4 -34 -9 0 -13 43 -22
54 -11 6 6 21 10 34 10 14 0 22 5 20 12 -6 16 -25 21 -33 9z"/>
<path d="M863 61 c1 -11 9 -22 19 -24 21 -6 22 1 4 26 -17 22 -25 22 -23 -2z"/>
<path d="M985 59 c-8 -25 -1 -34 20 -26 19 8 20 47 1 47 -8 0 -18 -9 -21 -21z"/>
<path d="M1035 70 c-6 -9 1 -14 18 -11 4 0 7 -7 7 -16 0 -12 3 -14 10 -7 6 6
8 18 4 27 -7 19 -29 23 -39 7z"/>
<path d="M1110 58 c0 -8 9 -23 20 -33 16 -15 20 -15 20 -3 0 8 -9 23 -20 33
-16 15 -20 15 -20 3z"/>
<path d="M350 25 c0 -14 5 -25 10 -25 6 0 10 5 10 10 0 6 7 10 15 10 20 0 19
16 -1 24 -27 10 -34 7 -34 -19z"/>
<path d="M550 29 c0 -6 -7 -9 -15 -5 -9 3 -15 0 -15 -9 0 -18 21 -20 38 -3 15
15 16 28 2 28 -5 0 -10 -5 -10 -11z"/>
<path d="M699 21 c10 -7 10 -10 1 -13 -7 -2 4 -4 24 -4 33 0 36 1 20 13 -10 7
-27 13 -38 13 -16 0 -18 -2 -7 -9z"/>
</g>
</svg>
